<svg width="50" height="49" viewBox="0 0 50 49" fill="none" xmlns="http://www.w3.org/2000/svg">
<g opacity="0.6" filter="url(#filter0_d_341_161)">
<path d="M48.6542 9.14149L41.9524 15.924C40.5986 31.8074 27.3631 44.152 11.5232 44.152C8.26866 44.152 5.5857 43.6303 3.54827 42.6004C1.90533 41.7679 1.23291 40.8764 1.0648 40.6224C0.914909 40.3949 0.817752 40.136 0.780594 39.8652C0.743435 39.5943 0.767235 39.3185 0.850215 39.0583C0.933195 38.798 1.07321 38.5602 1.2598 38.3624C1.44638 38.1646 1.67472 38.0121 1.92774 37.9162C1.98602 37.8935 7.36089 35.8043 10.7745 31.8278C8.88142 30.2525 7.22882 28.4027 5.87036 26.3382C3.09103 22.1621 -0.0200327 14.9078 0.939285 4.06707C0.969693 3.7226 1.09673 3.3941 1.30542 3.12025C1.51412 2.8464 1.79579 2.63861 2.11727 2.52134C2.43875 2.40407 2.78664 2.38221 3.11998 2.45834C3.45332 2.53446 3.75823 2.7054 3.99879 2.95102C4.07724 3.03041 11.4582 10.4594 20.482 12.8685V11.487C20.4786 10.0384 20.7616 8.60373 21.3144 7.26749C21.8671 5.93125 22.6785 4.72045 23.7007 3.70639C24.6934 2.70314 25.8746 1.91128 27.1746 1.37753C28.4746 0.843776 29.8671 0.578953 31.2699 0.598683C33.1517 0.617467 34.9966 1.1287 36.6254 2.08268C38.2542 3.03666 39.6113 4.40093 40.565 6.04285H47.3855C47.7404 6.04257 48.0873 6.14884 48.3825 6.34823C48.6776 6.54761 48.9076 6.83114 49.0435 7.16291C49.1793 7.49469 49.2148 7.85979 49.1455 8.212C49.0762 8.56421 48.9052 8.88769 48.6542 9.14149Z" fill="white"/>
</g>
<defs>
<filter id="filter0_d_341_161" x="0.761719" y="0.597656" width="48.418" height="47.5547" filterUnits="userSpaceOnUse" color-interpolation-filters="sRGB">
<feFlood flood-opacity="0" result="BackgroundImageFix"/>
<feColorMatrix in="SourceAlpha" type="matrix" values="0 0 0 0 0 0 0 0 0 0 0 0 0 0 0 0 0 0 127 0" result="hardAlpha"/>
<feOffset dy="4"/>
<feComposite in2="hardAlpha" operator="out"/>
<feColorMatrix type="matrix" values="0 0 0 0 0 0 0 0 0 0 0 0 0 0 0 0 0 0 0.65 0"/>
<feBlend mode="normal" in2="BackgroundImageFix" result="effect1_dropShadow_341_161"/>
<feBlend mode="normal" in="SourceGraphic" in2="effect1_dropShadow_341_161" result="shape"/>
</filter>
</defs>
</svg>
