<svg width="51" height="45" viewBox="0 0 51 45" fill="none" xmlns="http://www.w3.org/2000/svg">
<g opacity="0.6" filter="url(#filter0_d_341_160)">
<path d="M49.4911 7.10942C49.2799 6.27316 48.8753 5.49972 48.3106 4.85288C47.7459 4.20605 47.0373 3.70437 46.2433 3.38924C38.5598 0.385874 26.3308 0.413095 25.6583 0.413095C24.9859 0.413095 12.7569 0.385874 5.07334 3.38924C4.27936 3.70437 3.57079 4.20605 3.00609 4.85288C2.4414 5.49972 2.03676 6.27316 1.82556 7.10942C1.24504 9.37328 0.554688 13.5108 0.554688 20.375C0.554688 27.2392 1.24504 31.3768 1.82556 33.6406C2.03644 34.4773 2.44094 35.2512 3.00565 35.8985C3.57037 36.5457 4.2791 37.0477 5.07334 37.3631C12.4341 40.2372 23.9549 40.337 25.5104 40.337H25.8063C27.3618 40.337 38.8893 40.2372 46.2433 37.3631C47.0376 37.0477 47.7463 36.5457 48.311 35.8985C48.8757 35.2512 49.2802 34.4773 49.4911 33.6406C50.0716 31.3722 50.762 27.2392 50.762 20.375C50.762 13.5108 50.0716 9.37328 49.4911 7.10942ZM32.9631 21.854L23.9975 28.2056C23.7293 28.3957 23.4147 28.5079 23.088 28.53C22.7613 28.552 22.4348 28.4831 22.1441 28.3307C21.8533 28.1783 21.6093 27.9482 21.4386 27.6654C21.2678 27.3827 21.1769 27.058 21.1755 26.7266V14.0235C21.1756 13.6915 21.2657 13.3659 21.4359 13.0822C21.6062 12.7984 21.8501 12.5673 22.1411 12.4141C22.4321 12.2609 22.759 12.1914 23.0863 12.2132C23.4137 12.235 23.7288 12.3472 23.9975 12.5377L32.9631 18.8892C33.1989 19.0566 33.3914 19.279 33.5243 19.5377C33.6573 19.7963 33.7267 20.0835 33.7267 20.375C33.7267 20.6666 33.6573 20.9538 33.5243 21.2124C33.3914 21.471 33.1989 21.6935 32.9631 21.8608V21.854Z" fill="white"/>
</g>
<defs>
<filter id="filter0_d_341_160" x="0.554688" y="0.413086" width="50.207" height="43.9238" filterUnits="userSpaceOnUse" color-interpolation-filters="sRGB">
<feFlood flood-opacity="0" result="BackgroundImageFix"/>
<feColorMatrix in="SourceAlpha" type="matrix" values="0 0 0 0 0 0 0 0 0 0 0 0 0 0 0 0 0 0 127 0" result="hardAlpha"/>
<feOffset dy="4"/>
<feComposite in2="hardAlpha" operator="out"/>
<feColorMatrix type="matrix" values="0 0 0 0 0 0 0 0 0 0 0 0 0 0 0 0 0 0 0.65 0"/>
<feBlend mode="normal" in2="BackgroundImageFix" result="effect1_dropShadow_341_160"/>
<feBlend mode="normal" in="SourceGraphic" in2="effect1_dropShadow_341_160" result="shape"/>
</filter>
</defs>
</svg>
