<svg width="169" height="33" viewBox="0 0 169 33" fill="none" xmlns="http://www.w3.org/2000/svg">
<g filter="url(#filter0_d_341_162)">
<mask id="path-1-outside-1_341_162" maskUnits="userSpaceOnUse" x="-0.628906" y="-0.876953" width="170" height="31" fill="black">
<rect fill="white" x="-0.628906" y="-0.876953" width="170" height="31"/>
<path d="M13.8271 11.851C16.1738 12.107 18.0511 12.523 19.4591 13.099C20.8884 13.675 21.9231 14.4324 22.5631 15.371C23.2031 16.3097 23.5231 17.483 23.5231 18.891C23.5231 20.8324 22.7338 22.4537 21.1551 23.755C19.5764 25.0564 17.4644 25.8884 14.8191 26.251V28.299C14.8191 28.5337 14.7338 28.7364 14.5631 28.907C14.3924 29.0777 14.1898 29.163 13.9551 29.163H9.66709C9.43243 29.163 9.22976 29.0777 9.05909 28.907C8.88843 28.7364 8.80309 28.5337 8.80309 28.299V26.251C6.96843 26.0164 5.42176 25.579 4.16309 24.939C2.92576 24.2777 1.99776 23.4884 1.37909 22.571C0.760427 21.6537 0.451094 20.6724 0.451094 19.627C0.451094 19.4137 0.515094 19.243 0.643094 19.115C0.792427 18.987 0.973761 18.923 1.18709 18.923H7.74709C8.19509 18.923 8.55776 19.0617 8.83509 19.339C9.19776 19.6804 9.60309 19.915 10.0511 20.043C10.4991 20.1497 11.1284 20.203 11.9391 20.203C13.9658 20.203 14.9791 19.8937 14.9791 19.275C14.9791 19.019 14.8404 18.8057 14.5631 18.635C14.3071 18.443 13.8378 18.283 13.1551 18.155C12.4938 18.0057 11.5124 17.8564 10.2111 17.707C7.28843 17.3657 5.04843 16.6404 3.49109 15.531C1.93376 14.4004 1.15509 12.811 1.15509 10.763C1.15509 8.94971 1.83776 7.41371 3.20309 6.15505C4.56843 4.87505 6.43509 4.04305 8.80309 3.65905V1.38704C8.80309 1.15238 8.88843 0.949712 9.05909 0.779045C9.22976 0.608379 9.43243 0.523046 9.66709 0.523046H13.9551C14.1898 0.523046 14.3924 0.608379 14.5631 0.779045C14.7338 0.949712 14.8191 1.15238 14.8191 1.38704V3.65905C16.4618 3.93638 17.8804 4.42705 19.0751 5.13105C20.2698 5.83505 21.1764 6.62438 21.7951 7.49905C22.4351 8.37371 22.7551 9.21638 22.7551 10.027C22.7551 10.2404 22.6804 10.411 22.5311 10.539C22.4031 10.667 22.2218 10.731 21.9871 10.731H15.1071C14.7231 10.731 14.3924 10.603 14.1151 10.347C13.8804 10.1337 13.6031 9.96305 13.2831 9.83505C12.9631 9.70705 12.4724 9.64305 11.8111 9.64305C10.3818 9.64305 9.66709 9.94171 9.66709 10.539C9.66709 10.859 9.94443 11.115 10.4991 11.307C11.0538 11.4777 12.1631 11.659 13.8271 11.851ZM52.0546 16.811C52.0546 20.0537 50.9879 22.475 48.8546 24.075C46.7213 25.6537 43.8733 26.443 40.3106 26.443C37.7506 26.443 35.5639 26.0377 33.7506 25.227C31.9586 24.395 30.6039 23.3497 29.6866 22.091C28.7906 20.8324 28.3426 19.563 28.3426 18.283C28.3426 18.091 28.4066 17.931 28.5346 17.803C28.6839 17.6537 28.8546 17.579 29.0466 17.579H36.2786C36.4706 17.579 36.6306 17.643 36.7586 17.771C36.9079 17.899 37.0146 18.0697 37.0786 18.283C37.4839 19.563 38.5079 20.203 40.1506 20.203C41.1533 20.203 41.9426 19.9684 42.5186 19.499C43.1159 19.0297 43.4146 18.3577 43.4146 17.483V10.283H31.7346C31.4999 10.283 31.2973 10.1977 31.1266 10.027C30.9559 9.85638 30.8706 9.65371 30.8706 9.41905V4.58705C30.8706 4.35238 30.9559 4.14971 31.1266 3.97905C31.2973 3.80838 31.4999 3.72305 31.7346 3.72305H51.1906C51.4253 3.72305 51.6279 3.80838 51.7986 3.97905C51.9693 4.14971 52.0546 4.35238 52.0546 4.58705V16.811ZM70.1861 26.443C66.6021 26.443 63.7541 25.6644 61.6421 24.107C59.5514 22.5497 58.5061 20.1177 58.5061 16.811V4.58705C58.5061 4.35238 58.5914 4.14971 58.7621 3.97905C58.9328 3.80838 59.1354 3.72305 59.3701 3.72305H66.0581C66.2928 3.72305 66.4954 3.80838 66.6661 3.97905C66.8368 4.14971 66.9221 4.35238 66.9221 4.58705V17.323C66.9221 18.1977 67.2101 18.8697 67.7861 19.339C68.3834 19.8084 69.1834 20.043 70.1861 20.043C71.1888 20.043 71.9781 19.8084 72.5541 19.339C73.1514 18.8697 73.4501 18.1977 73.4501 17.323V4.58705C73.4501 4.35238 73.5354 4.14971 73.7061 3.97905C73.8768 3.80838 74.0794 3.72305 74.3141 3.72305H81.0021C81.2368 3.72305 81.4394 3.80838 81.6101 3.97905C81.7808 4.14971 81.8661 4.35238 81.8661 4.58705V16.811C81.8661 20.1177 80.8101 22.5497 78.6981 24.107C76.6074 25.6644 73.7701 26.443 70.1861 26.443ZM103.646 19.563H109.438C109.672 19.563 109.875 19.6484 110.046 19.819C110.216 19.9897 110.302 20.1924 110.302 20.427V25.259C110.302 25.4937 110.216 25.6964 110.046 25.867C109.875 26.0377 109.672 26.123 109.438 26.123H89.1496C88.9149 26.123 88.7123 26.0377 88.5416 25.867C88.3709 25.6964 88.2856 25.4937 88.2856 25.259V20.427C88.2856 20.1924 88.3709 19.9897 88.5416 19.819C88.7123 19.6484 88.9149 19.563 89.1496 19.563H95.0056V10.283H89.1496C88.9149 10.283 88.7123 10.1977 88.5416 10.027C88.3709 9.85638 88.2856 9.65371 88.2856 9.41905V4.58705C88.2856 4.35238 88.3709 4.14971 88.5416 3.97905C88.7123 3.80838 88.9149 3.72305 89.1496 3.72305H109.438C109.672 3.72305 109.875 3.80838 110.046 3.97905C110.216 4.14971 110.302 4.35238 110.302 4.58705V9.41905C110.302 9.65371 110.216 9.85638 110.046 10.027C109.875 10.1977 109.672 10.283 109.438 10.283H103.646V19.563ZM125.457 17.483C125.457 18.3577 125.745 19.0297 126.321 19.499C126.918 19.9684 127.718 20.203 128.721 20.203C129.617 20.203 130.278 20.0537 130.705 19.755C131.132 19.4564 131.494 19.0084 131.793 18.411C132.07 17.8564 132.444 17.579 132.913 17.579H139.825C140.017 17.579 140.177 17.6537 140.305 17.803C140.454 17.931 140.529 18.091 140.529 18.283C140.529 19.5844 140.092 20.8644 139.217 22.123C138.342 23.3604 137.009 24.395 135.217 25.227C133.446 26.0377 131.281 26.443 128.721 26.443C126.438 26.443 124.401 26.1017 122.609 25.419C120.838 24.715 119.43 23.6484 118.385 22.219C117.34 20.7684 116.817 18.9657 116.817 16.811V13.035C116.817 10.8804 117.34 9.08838 118.385 7.65905C119.43 6.20838 120.838 5.14171 122.609 4.45905C124.401 3.75505 126.438 3.40305 128.721 3.40305C131.281 3.40305 133.446 3.81905 135.217 4.65105C137.009 5.46171 138.342 6.49638 139.217 7.75505C140.092 8.99238 140.529 10.2617 140.529 11.563C140.529 11.755 140.454 11.9257 140.305 12.075C140.177 12.203 140.017 12.267 139.825 12.267H132.913C132.444 12.267 132.07 11.9897 131.793 11.435C131.494 10.8377 131.132 10.3897 130.705 10.091C130.278 9.79238 129.617 9.64305 128.721 9.64305C127.718 9.64305 126.918 9.87771 126.321 10.347C125.745 10.8164 125.457 11.4884 125.457 12.363V17.483ZM167.877 19.883C168.111 19.883 168.314 19.9684 168.485 20.139C168.655 20.3097 168.741 20.5124 168.741 20.747V25.259C168.741 25.4937 168.655 25.6964 168.485 25.867C168.314 26.0377 168.111 26.123 167.877 26.123H147.653C147.418 26.123 147.215 26.0377 147.045 25.867C146.874 25.6964 146.789 25.4937 146.789 25.259V4.58705C146.789 4.35238 146.874 4.14971 147.045 3.97905C147.215 3.80838 147.418 3.72305 147.653 3.72305H167.557C167.791 3.72305 167.994 3.80838 168.165 3.97905C168.335 4.14971 168.421 4.35238 168.421 4.58705V9.09905C168.421 9.33371 168.335 9.53638 168.165 9.70705C167.994 9.87771 167.791 9.96305 167.557 9.96305H155.109V11.979H165.797C166.031 11.979 166.234 12.0644 166.405 12.235C166.575 12.4057 166.661 12.6084 166.661 12.843V17.003C166.661 17.2377 166.575 17.4404 166.405 17.611C166.234 17.7817 166.031 17.867 165.797 17.867H155.109V19.883H167.877Z"/>
</mask>
<path d="M13.8271 11.851C16.1738 12.107 18.0511 12.523 19.4591 13.099C20.8884 13.675 21.9231 14.4324 22.5631 15.371C23.2031 16.3097 23.5231 17.483 23.5231 18.891C23.5231 20.8324 22.7338 22.4537 21.1551 23.755C19.5764 25.0564 17.4644 25.8884 14.8191 26.251V28.299C14.8191 28.5337 14.7338 28.7364 14.5631 28.907C14.3924 29.0777 14.1898 29.163 13.9551 29.163H9.66709C9.43243 29.163 9.22976 29.0777 9.05909 28.907C8.88843 28.7364 8.80309 28.5337 8.80309 28.299V26.251C6.96843 26.0164 5.42176 25.579 4.16309 24.939C2.92576 24.2777 1.99776 23.4884 1.37909 22.571C0.760427 21.6537 0.451094 20.6724 0.451094 19.627C0.451094 19.4137 0.515094 19.243 0.643094 19.115C0.792427 18.987 0.973761 18.923 1.18709 18.923H7.74709C8.19509 18.923 8.55776 19.0617 8.83509 19.339C9.19776 19.6804 9.60309 19.915 10.0511 20.043C10.4991 20.1497 11.1284 20.203 11.9391 20.203C13.9658 20.203 14.9791 19.8937 14.9791 19.275C14.9791 19.019 14.8404 18.8057 14.5631 18.635C14.3071 18.443 13.8378 18.283 13.1551 18.155C12.4938 18.0057 11.5124 17.8564 10.2111 17.707C7.28843 17.3657 5.04843 16.6404 3.49109 15.531C1.93376 14.4004 1.15509 12.811 1.15509 10.763C1.15509 8.94971 1.83776 7.41371 3.20309 6.15505C4.56843 4.87505 6.43509 4.04305 8.80309 3.65905V1.38704C8.80309 1.15238 8.88843 0.949712 9.05909 0.779045C9.22976 0.608379 9.43243 0.523046 9.66709 0.523046H13.9551C14.1898 0.523046 14.3924 0.608379 14.5631 0.779045C14.7338 0.949712 14.8191 1.15238 14.8191 1.38704V3.65905C16.4618 3.93638 17.8804 4.42705 19.0751 5.13105C20.2698 5.83505 21.1764 6.62438 21.7951 7.49905C22.4351 8.37371 22.7551 9.21638 22.7551 10.027C22.7551 10.2404 22.6804 10.411 22.5311 10.539C22.4031 10.667 22.2218 10.731 21.9871 10.731H15.1071C14.7231 10.731 14.3924 10.603 14.1151 10.347C13.8804 10.1337 13.6031 9.96305 13.2831 9.83505C12.9631 9.70705 12.4724 9.64305 11.8111 9.64305C10.3818 9.64305 9.66709 9.94171 9.66709 10.539C9.66709 10.859 9.94443 11.115 10.4991 11.307C11.0538 11.4777 12.1631 11.659 13.8271 11.851ZM52.0546 16.811C52.0546 20.0537 50.9879 22.475 48.8546 24.075C46.7213 25.6537 43.8733 26.443 40.3106 26.443C37.7506 26.443 35.5639 26.0377 33.7506 25.227C31.9586 24.395 30.6039 23.3497 29.6866 22.091C28.7906 20.8324 28.3426 19.563 28.3426 18.283C28.3426 18.091 28.4066 17.931 28.5346 17.803C28.6839 17.6537 28.8546 17.579 29.0466 17.579H36.2786C36.4706 17.579 36.6306 17.643 36.7586 17.771C36.9079 17.899 37.0146 18.0697 37.0786 18.283C37.4839 19.563 38.5079 20.203 40.1506 20.203C41.1533 20.203 41.9426 19.9684 42.5186 19.499C43.1159 19.0297 43.4146 18.3577 43.4146 17.483V10.283H31.7346C31.4999 10.283 31.2973 10.1977 31.1266 10.027C30.9559 9.85638 30.8706 9.65371 30.8706 9.41905V4.58705C30.8706 4.35238 30.9559 4.14971 31.1266 3.97905C31.2973 3.80838 31.4999 3.72305 31.7346 3.72305H51.1906C51.4253 3.72305 51.6279 3.80838 51.7986 3.97905C51.9693 4.14971 52.0546 4.35238 52.0546 4.58705V16.811ZM70.1861 26.443C66.6021 26.443 63.7541 25.6644 61.6421 24.107C59.5514 22.5497 58.5061 20.1177 58.5061 16.811V4.58705C58.5061 4.35238 58.5914 4.14971 58.7621 3.97905C58.9328 3.80838 59.1354 3.72305 59.3701 3.72305H66.0581C66.2928 3.72305 66.4954 3.80838 66.6661 3.97905C66.8368 4.14971 66.9221 4.35238 66.9221 4.58705V17.323C66.9221 18.1977 67.2101 18.8697 67.7861 19.339C68.3834 19.8084 69.1834 20.043 70.1861 20.043C71.1888 20.043 71.9781 19.8084 72.5541 19.339C73.1514 18.8697 73.4501 18.1977 73.4501 17.323V4.58705C73.4501 4.35238 73.5354 4.14971 73.7061 3.97905C73.8768 3.80838 74.0794 3.72305 74.3141 3.72305H81.0021C81.2368 3.72305 81.4394 3.80838 81.6101 3.97905C81.7808 4.14971 81.8661 4.35238 81.8661 4.58705V16.811C81.8661 20.1177 80.8101 22.5497 78.6981 24.107C76.6074 25.6644 73.7701 26.443 70.1861 26.443ZM103.646 19.563H109.438C109.672 19.563 109.875 19.6484 110.046 19.819C110.216 19.9897 110.302 20.1924 110.302 20.427V25.259C110.302 25.4937 110.216 25.6964 110.046 25.867C109.875 26.0377 109.672 26.123 109.438 26.123H89.1496C88.9149 26.123 88.7123 26.0377 88.5416 25.867C88.3709 25.6964 88.2856 25.4937 88.2856 25.259V20.427C88.2856 20.1924 88.3709 19.9897 88.5416 19.819C88.7123 19.6484 88.9149 19.563 89.1496 19.563H95.0056V10.283H89.1496C88.9149 10.283 88.7123 10.1977 88.5416 10.027C88.3709 9.85638 88.2856 9.65371 88.2856 9.41905V4.58705C88.2856 4.35238 88.3709 4.14971 88.5416 3.97905C88.7123 3.80838 88.9149 3.72305 89.1496 3.72305H109.438C109.672 3.72305 109.875 3.80838 110.046 3.97905C110.216 4.14971 110.302 4.35238 110.302 4.58705V9.41905C110.302 9.65371 110.216 9.85638 110.046 10.027C109.875 10.1977 109.672 10.283 109.438 10.283H103.646V19.563ZM125.457 17.483C125.457 18.3577 125.745 19.0297 126.321 19.499C126.918 19.9684 127.718 20.203 128.721 20.203C129.617 20.203 130.278 20.0537 130.705 19.755C131.132 19.4564 131.494 19.0084 131.793 18.411C132.07 17.8564 132.444 17.579 132.913 17.579H139.825C140.017 17.579 140.177 17.6537 140.305 17.803C140.454 17.931 140.529 18.091 140.529 18.283C140.529 19.5844 140.092 20.8644 139.217 22.123C138.342 23.3604 137.009 24.395 135.217 25.227C133.446 26.0377 131.281 26.443 128.721 26.443C126.438 26.443 124.401 26.1017 122.609 25.419C120.838 24.715 119.43 23.6484 118.385 22.219C117.34 20.7684 116.817 18.9657 116.817 16.811V13.035C116.817 10.8804 117.34 9.08838 118.385 7.65905C119.43 6.20838 120.838 5.14171 122.609 4.45905C124.401 3.75505 126.438 3.40305 128.721 3.40305C131.281 3.40305 133.446 3.81905 135.217 4.65105C137.009 5.46171 138.342 6.49638 139.217 7.75505C140.092 8.99238 140.529 10.2617 140.529 11.563C140.529 11.755 140.454 11.9257 140.305 12.075C140.177 12.203 140.017 12.267 139.825 12.267H132.913C132.444 12.267 132.07 11.9897 131.793 11.435C131.494 10.8377 131.132 10.3897 130.705 10.091C130.278 9.79238 129.617 9.64305 128.721 9.64305C127.718 9.64305 126.918 9.87771 126.321 10.347C125.745 10.8164 125.457 11.4884 125.457 12.363V17.483ZM167.877 19.883C168.111 19.883 168.314 19.9684 168.485 20.139C168.655 20.3097 168.741 20.5124 168.741 20.747V25.259C168.741 25.4937 168.655 25.6964 168.485 25.867C168.314 26.0377 168.111 26.123 167.877 26.123H147.653C147.418 26.123 147.215 26.0377 147.045 25.867C146.874 25.6964 146.789 25.4937 146.789 25.259V4.58705C146.789 4.35238 146.874 4.14971 147.045 3.97905C147.215 3.80838 147.418 3.72305 147.653 3.72305H167.557C167.791 3.72305 167.994 3.80838 168.165 3.97905C168.335 4.14971 168.421 4.35238 168.421 4.58705V9.09905C168.421 9.33371 168.335 9.53638 168.165 9.70705C167.994 9.87771 167.791 9.96305 167.557 9.96305H155.109V11.979H165.797C166.031 11.979 166.234 12.0644 166.405 12.235C166.575 12.4057 166.661 12.6084 166.661 12.843V17.003C166.661 17.2377 166.575 17.4404 166.405 17.611C166.234 17.7817 166.031 17.867 165.797 17.867H155.109V19.883H167.877Z" fill="url(#paint0_linear_341_162)"/>
<path d="M13.8271 11.851L13.7698 12.3478L13.7729 12.3481L13.8271 11.851ZM19.4591 13.099L19.2698 13.5618L19.2722 13.5628L19.4591 13.099ZM22.5631 15.371L22.9762 15.0894H22.9762L22.5631 15.371ZM21.1551 23.755L21.4731 24.1409L21.1551 23.755ZM14.8191 26.251L14.7512 25.7557L14.3191 25.8149V26.251H14.8191ZM14.5631 28.907L14.9166 29.2606L14.5631 28.907ZM9.05909 28.907L9.41265 28.5535H9.41265L9.05909 28.907ZM8.80309 26.251H9.30309V25.8109L8.86653 25.7551L8.80309 26.251ZM4.16309 24.939L3.92736 25.3801L3.93647 25.3847L4.16309 24.939ZM0.643094 19.115L0.317698 18.7354L0.303119 18.7479L0.28954 18.7615L0.643094 19.115ZM8.83509 19.339L8.48154 19.6926L8.4869 19.698L8.49241 19.7031L8.83509 19.339ZM10.0511 20.043L9.91373 20.5238L9.92445 20.5269L9.93528 20.5294L10.0511 20.043ZM14.5631 18.635L14.2631 19.035L14.2815 19.0488L14.301 19.0609L14.5631 18.635ZM13.1551 18.155L13.045 18.6428L13.0539 18.6448L13.063 18.6465L13.1551 18.155ZM10.2111 17.707L10.1531 18.2037L10.1541 18.2038L10.2111 17.707ZM3.49109 15.531L3.19733 15.9357L3.201 15.9383L3.49109 15.531ZM3.20309 6.15505L3.54201 6.52268L3.54506 6.51982L3.20309 6.15505ZM8.80309 3.65905L8.88313 4.1526L9.30309 4.0845V3.65905H8.80309ZM9.05909 0.779045L8.70554 0.425491L8.70554 0.425492L9.05909 0.779045ZM14.5631 0.779045L14.9166 0.425493L14.9166 0.42549L14.5631 0.779045ZM14.8191 3.65905H14.3191V4.08171L14.7359 4.15207L14.8191 3.65905ZM21.7951 7.49905L21.3868 7.78782L21.3916 7.7943L21.7951 7.49905ZM22.5311 10.539L22.2057 10.1594L22.1911 10.1719L22.1775 10.1855L22.5311 10.539ZM14.1151 10.347L14.4542 9.97963L14.4514 9.97708L14.1151 10.347ZM13.2831 9.83505L13.0974 10.2993H13.0974L13.2831 9.83505ZM10.4991 11.307L10.3355 11.7795L10.3437 11.7824L10.3521 11.7849L10.4991 11.307ZM13.7729 12.3481C16.0957 12.6015 17.9219 13.0104 19.2698 13.5618L19.6484 12.6363C18.1803 12.0357 16.2518 11.6126 13.8813 11.354L13.7729 12.3481ZM19.2722 13.5628C20.6416 14.1147 21.5824 14.8202 22.15 15.6527L22.9762 15.0894C22.2638 14.0446 21.1352 13.2354 19.646 12.6353L19.2722 13.5628ZM22.15 15.6527C22.7211 16.4904 23.0231 17.5593 23.0231 18.891H24.0231C24.0231 17.4068 23.6851 16.129 22.9762 15.0894L22.15 15.6527ZM23.0231 18.891C23.0231 20.6741 22.3076 22.157 20.8371 23.3692L21.4731 24.1409C23.1599 22.7504 24.0231 20.9907 24.0231 18.891H23.0231ZM20.8371 23.3692C19.3487 24.5961 17.3321 25.4018 14.7512 25.7557L14.887 26.7464C17.5968 26.3749 19.8041 25.5167 21.4731 24.1409L20.8371 23.3692ZM14.3191 26.251V28.299H15.3191V26.251H14.3191ZM14.3191 28.299C14.3191 28.3969 14.2894 28.4736 14.2095 28.5535L14.9166 29.2606C15.1781 28.9992 15.3191 28.6705 15.3191 28.299H14.3191ZM14.2095 28.5535C14.1297 28.6334 14.053 28.663 13.9551 28.663V29.663C14.3265 29.663 14.6552 29.522 14.9166 29.2606L14.2095 28.5535ZM13.9551 28.663H9.66709V29.663H13.9551V28.663ZM9.66709 28.663C9.56921 28.663 9.49254 28.6334 9.41265 28.5535L8.70554 29.2606C8.96698 29.522 9.29565 29.663 9.66709 29.663V28.663ZM9.41265 28.5535C9.33276 28.4736 9.30309 28.3969 9.30309 28.299H8.30309C8.30309 28.6705 8.4441 28.9992 8.70554 29.2606L9.41265 28.5535ZM9.30309 28.299V26.251H8.30309V28.299H9.30309ZM8.86653 25.7551C7.07209 25.5256 5.5842 25.1007 4.38972 24.4934L3.93647 25.3847C5.25933 26.0574 6.86476 26.5072 8.73966 26.747L8.86653 25.7551ZM4.39878 24.4981C3.21452 23.8651 2.35613 23.1255 1.79363 22.2915L0.964558 22.8506C1.63939 23.8512 2.637 24.6903 3.92741 25.38L4.39878 24.4981ZM1.79363 22.2915C1.22723 21.4516 0.951094 20.5668 0.951094 19.627H-0.0489061C-0.0489061 20.778 0.29362 21.8558 0.964558 22.8506L1.79363 22.2915ZM0.951094 19.627C0.951094 19.5208 0.979015 19.4862 0.996647 19.4686L0.28954 18.7615C0.0511727 18.9999 -0.0489061 19.3066 -0.0489061 19.627H0.951094ZM0.968489 19.4947C1.01926 19.4512 1.08222 19.423 1.18709 19.423V18.423C0.865298 18.423 0.565595 18.5229 0.317698 18.7354L0.968489 19.4947ZM1.18709 19.423H7.74709V18.423H1.18709V19.423ZM7.74709 19.423C8.08298 19.423 8.31154 19.5226 8.48154 19.6926L9.18865 18.9855C8.80398 18.6008 8.3072 18.423 7.74709 18.423V19.423ZM8.49241 19.7031C8.90911 20.0953 9.38371 20.3724 9.91373 20.5238L10.1885 19.5623C9.82248 19.4577 9.48641 19.2654 9.17778 18.9749L8.49241 19.7031ZM9.93528 20.5294C10.4394 20.6495 11.1141 20.703 11.9391 20.703V19.703C11.1427 19.703 10.5588 19.6499 10.1669 19.5566L9.93528 20.5294ZM11.9391 20.703C12.9655 20.703 13.7857 20.6261 14.3651 20.4493C14.9109 20.2826 15.4791 19.942 15.4791 19.275H14.4791C14.4791 19.2773 14.479 19.2788 14.4789 19.2796C14.4789 19.28 14.4788 19.2803 14.4788 19.2805C14.4788 19.2807 14.4787 19.2807 14.4787 19.2807C14.4787 19.2807 14.4787 19.2807 14.4788 19.2806C14.4788 19.2806 14.4788 19.2805 14.4788 19.2804C14.4789 19.2802 14.4789 19.2803 14.4787 19.2806C14.4787 19.2808 14.4736 19.292 14.4514 19.3123C14.4014 19.3581 14.2901 19.4266 14.0731 19.4928C13.6392 19.6253 12.9394 19.703 11.9391 19.703V20.703ZM15.4791 19.275C15.4791 18.7975 15.2043 18.4426 14.8251 18.2092L14.301 19.0609C14.4765 19.1689 14.4791 19.2406 14.4791 19.275H15.4791ZM14.8631 18.235C14.5074 17.9683 13.9369 17.7929 13.2472 17.6636L13.063 18.6465C13.7386 18.7732 14.1068 18.9178 14.2631 19.035L14.8631 18.235ZM13.2652 17.6673C12.577 17.5119 11.5741 17.3602 10.2681 17.2103L10.1541 18.2038C11.4508 18.3526 12.4106 18.4995 13.045 18.6428L13.2652 17.6673ZM10.2691 17.2104C7.38893 16.8741 5.24264 16.1648 3.78119 15.1238L3.201 15.9383C4.85421 17.1159 7.18792 17.8574 10.1531 18.2037L10.2691 17.2104ZM3.78485 15.1264C2.36653 14.0967 1.65509 12.663 1.65509 10.763H0.655094C0.655094 12.9591 1.50099 14.7041 3.19734 15.9357L3.78485 15.1264ZM1.65509 10.763C1.65509 9.09315 2.27654 7.68926 3.542 6.52267L2.86419 5.78743C1.39898 7.13817 0.655094 8.80628 0.655094 10.763H1.65509ZM3.54506 6.51982C4.81987 5.32469 6.58579 4.52514 8.88313 4.1526L8.72306 3.16549C6.28439 3.56095 4.31699 4.42541 2.86112 5.79028L3.54506 6.51982ZM9.30309 3.65905V1.38704H8.30309V3.65905H9.30309ZM9.30309 1.38704C9.30309 1.28916 9.33276 1.21249 9.41265 1.1326L8.70554 0.425492C8.4441 0.686934 8.30309 1.0156 8.30309 1.38704H9.30309ZM9.41265 1.1326C9.49254 1.05271 9.56921 1.02305 9.66709 1.02305V0.0230465C9.29565 0.0230465 8.96698 0.164049 8.70554 0.425491L9.41265 1.1326ZM9.66709 1.02305H13.9551V0.0230465H9.66709V1.02305ZM13.9551 1.02305C14.053 1.02305 14.1297 1.05271 14.2095 1.1326L14.9166 0.42549C14.6552 0.164049 14.3265 0.0230465 13.9551 0.0230465V1.02305ZM14.2095 1.1326C14.2894 1.21249 14.3191 1.28916 14.3191 1.38704H15.3191C15.3191 1.0156 15.1781 0.686936 14.9166 0.425493L14.2095 1.1326ZM14.3191 1.38704V3.65905H15.3191V1.38704H14.3191ZM14.7359 4.15207C16.3301 4.42123 17.6886 4.89436 18.8212 5.56182L19.3289 4.70028C18.0723 3.95974 16.5934 3.45153 14.9023 3.16602L14.7359 4.15207ZM18.8212 5.56182C19.9722 6.24005 20.8192 6.98517 21.3869 7.78778L22.2033 7.21031C21.5337 6.26359 20.5673 5.43004 19.3289 4.70028L18.8212 5.56182ZM21.3916 7.7943C21.9898 8.61185 22.2551 9.35318 22.2551 10.027H23.2551C23.2551 9.07958 22.8804 8.13558 22.1986 7.20379L21.3916 7.7943ZM22.2551 10.027C22.2551 10.1084 22.234 10.1351 22.2057 10.1594L22.8565 10.9187C23.1268 10.6869 23.2551 10.3724 23.2551 10.027H22.2551ZM22.1775 10.1855C22.1688 10.1942 22.1302 10.231 21.9871 10.231V11.231C22.3134 11.231 22.6374 11.1398 22.8846 10.8926L22.1775 10.1855ZM21.9871 10.231H15.1071V11.231H21.9871V10.231ZM15.1071 10.231C14.8464 10.231 14.6374 10.1488 14.4542 9.97964L13.776 10.7144C14.1474 11.0573 14.5998 11.231 15.1071 11.231V10.231ZM14.4514 9.97708C14.1689 9.72023 13.8394 9.51906 13.4688 9.37081L13.0974 10.2993C13.3668 10.407 13.592 10.5472 13.7788 10.717L14.4514 9.97708ZM13.4688 9.37081C13.0576 9.20632 12.4885 9.14305 11.8111 9.14305V10.143C12.4564 10.143 12.8686 10.2078 13.0974 10.2993L13.4688 9.37081ZM11.8111 9.14305C11.0767 9.14305 10.4605 9.21758 10.0103 9.40571C9.78021 9.50187 9.56715 9.6385 9.41021 9.83527C9.24707 10.0398 9.16709 10.2816 9.16709 10.539H10.1671C10.1671 10.4978 10.1765 10.4783 10.192 10.4588C10.2137 10.4316 10.2686 10.3816 10.3959 10.3284C10.6604 10.2178 11.1162 10.143 11.8111 10.143V9.14305ZM9.16709 10.539C9.16709 11.2156 9.76124 11.5807 10.3355 11.7795L10.6626 10.8346C10.4181 10.7499 10.282 10.6662 10.2142 10.6036C10.183 10.5748 10.1725 10.5562 10.1696 10.5501C10.1675 10.5459 10.1671 10.544 10.1671 10.539H9.16709ZM10.3521 11.7849C10.9576 11.9713 12.1123 12.1565 13.7698 12.3478L13.8844 11.3543C12.2139 11.1616 11.1499 10.9842 10.6461 10.8292L10.3521 11.7849ZM48.8546 24.075L49.152 24.477L49.1546 24.475L48.8546 24.075ZM33.7506 25.227L33.54 25.6806L33.5465 25.6835L33.7506 25.227ZM29.6866 22.091L29.2792 22.381L29.2825 22.3855L29.6866 22.091ZM28.5346 17.803L28.181 17.4495L28.5346 17.803ZM36.7586 17.771L36.405 18.1246L36.4186 18.1382L36.4332 18.1507L36.7586 17.771ZM37.0786 18.283L36.5996 18.4267L36.6019 18.434L37.0786 18.283ZM42.5186 19.499L42.2096 19.1058L42.2028 19.1114L42.5186 19.499ZM43.4146 10.283H43.9146V9.78305H43.4146V10.283ZM31.1266 10.027L30.773 10.3806V10.3806L31.1266 10.027ZM51.7986 3.97905L52.1521 3.62549V3.62549L51.7986 3.97905ZM51.5546 16.811C51.5546 19.9344 50.5344 22.1902 48.5546 23.675L49.1546 24.475C51.4414 22.7599 52.5546 20.173 52.5546 16.811H51.5546ZM48.5572 23.6731C46.5351 25.1695 43.8024 25.943 40.3106 25.943V26.943C43.9441 26.943 46.9074 26.138 49.152 24.477L48.5572 23.6731ZM40.3106 25.943C37.8014 25.943 35.6881 25.5455 33.9547 24.7706L33.5465 25.6835C35.4398 26.5299 37.6998 26.943 40.3106 26.943V25.943ZM33.9612 24.7735C32.2258 23.9679 30.9464 22.9706 30.0907 21.7966L29.2825 22.3855C30.2615 23.7288 31.6913 24.8222 33.54 25.6806L33.9612 24.7735ZM30.0939 21.8011C29.2455 20.6092 28.8426 19.4391 28.8426 18.283H27.8426C27.8426 19.687 28.3357 21.0556 29.2793 22.381L30.0939 21.8011ZM28.8426 18.283C28.8426 18.2147 28.86 18.1847 28.8881 18.1566L28.181 17.4495C27.9531 17.6774 27.8426 17.9674 27.8426 18.283H28.8426ZM28.8881 18.1566C28.954 18.0907 29.0011 18.079 29.0466 18.079V17.079C28.7081 17.079 28.4138 17.2167 28.181 17.4495L28.8881 18.1566ZM29.0466 18.079H36.2786V17.079H29.0466V18.079ZM36.2786 18.079C36.3469 18.079 36.3769 18.0965 36.405 18.1246L37.1121 17.4175C36.8843 17.1896 36.5943 17.079 36.2786 17.079V18.079ZM36.4332 18.1507C36.5005 18.2084 36.5595 18.2926 36.5997 18.4267L37.5575 18.1394C37.4697 17.8468 37.3153 17.5897 37.084 17.3914L36.4332 18.1507ZM36.6019 18.434C36.8362 19.1737 37.2614 19.7569 37.8856 20.147C38.5008 20.5316 39.2682 20.703 40.1506 20.703V19.703C39.3903 19.703 38.8244 19.5545 38.4156 19.299C38.0158 19.0492 37.7264 18.6724 37.5553 18.1321L36.6019 18.434ZM40.1506 20.703C41.2282 20.703 42.1424 20.4506 42.8344 19.8867L42.2028 19.1114C41.7428 19.4862 41.0784 19.703 40.1506 19.703V20.703ZM42.8275 19.8922C43.5647 19.313 43.9146 18.4849 43.9146 17.483H42.9146C42.9146 18.2305 42.6671 18.7465 42.2097 19.1059L42.8275 19.8922ZM43.9146 17.483V10.283H42.9146V17.483H43.9146ZM43.4146 9.78305H31.7346V10.783H43.4146V9.78305ZM31.7346 9.78305C31.6367 9.78305 31.56 9.75338 31.4801 9.67349L30.773 10.3806C31.0345 10.642 31.3631 10.783 31.7346 10.783V9.78305ZM31.4801 9.67349C31.4003 9.5936 31.3706 9.51693 31.3706 9.41905H30.3706C30.3706 9.79049 30.5116 10.1192 30.773 10.3806L31.4801 9.67349ZM31.3706 9.41905V4.58705H30.3706V9.41905H31.3706ZM31.3706 4.58705C31.3706 4.48916 31.4003 4.41249 31.4801 4.3326L30.773 3.62549C30.5116 3.88694 30.3706 4.2156 30.3706 4.58705H31.3706ZM31.4801 4.3326C31.56 4.25271 31.6367 4.22305 31.7346 4.22305V3.22305C31.3631 3.22305 31.0345 3.36405 30.773 3.62549L31.4801 4.3326ZM31.7346 4.22305H51.1906V3.22305H31.7346V4.22305ZM51.1906 4.22305C51.2885 4.22305 51.3652 4.25271 51.445 4.3326L52.1521 3.62549C51.8907 3.36405 51.562 3.22305 51.1906 3.22305V4.22305ZM51.445 4.3326C51.5249 4.41249 51.5546 4.48916 51.5546 4.58705H52.5546C52.5546 4.2156 52.4136 3.88694 52.1521 3.62549L51.445 4.3326ZM51.5546 4.58705V16.811H52.5546V4.58705H51.5546ZM61.6421 24.107L61.3434 24.508L61.3454 24.5095L61.6421 24.107ZM66.6661 3.97905L67.0196 3.62549V3.62549L66.6661 3.97905ZM67.7861 19.339L67.4702 19.7267L67.4772 19.7322L67.7861 19.339ZM72.5541 19.339L72.2451 18.9458L72.2383 18.9514L72.5541 19.339ZM81.6101 3.97905L81.9637 3.62549L81.9636 3.62549L81.6101 3.97905ZM78.6981 24.107L78.4014 23.7046L78.3994 23.7061L78.6981 24.107ZM70.1861 25.943C66.6705 25.943 63.9384 25.1791 61.9388 23.7046L61.3454 24.5095C63.5698 26.1497 66.5337 26.943 70.1861 26.943V25.943ZM61.9408 23.7061C60.0102 22.268 59.0061 20.0066 59.0061 16.811H58.0061C58.0061 20.2288 59.0927 22.8315 61.3434 24.508L61.9408 23.7061ZM59.0061 16.811V4.58705H58.0061V16.811H59.0061ZM59.0061 4.58705C59.0061 4.48916 59.0358 4.41249 59.1156 4.3326L58.4085 3.62549C58.1471 3.88694 58.0061 4.2156 58.0061 4.58705H59.0061ZM59.1156 4.3326C59.1955 4.25271 59.2722 4.22305 59.3701 4.22305V3.22305C58.9986 3.22305 58.67 3.36405 58.4085 3.62549L59.1156 4.3326ZM59.3701 4.22305H66.0581V3.22305H59.3701V4.22305ZM66.0581 4.22305C66.156 4.22305 66.2327 4.25271 66.3125 4.3326L67.0196 3.62549C66.7582 3.36405 66.4295 3.22305 66.0581 3.22305V4.22305ZM66.3125 4.3326C66.3924 4.41249 66.4221 4.48916 66.4221 4.58705H67.4221C67.4221 4.2156 67.2811 3.88694 67.0196 3.62549L66.3125 4.3326ZM66.4221 4.58705V17.323H67.4221V4.58705H66.4221ZM66.4221 17.323C66.4221 18.3184 66.7565 19.1451 67.4703 19.7267L68.1019 18.9514C67.6637 18.5943 67.4221 18.0771 67.4221 17.323H66.4221ZM67.4772 19.7322C68.1872 20.2901 69.1073 20.543 70.1861 20.543V19.543C69.2595 19.543 68.5796 19.3267 68.095 18.9459L67.4772 19.7322ZM70.1861 20.543C71.2637 20.543 72.1779 20.2906 72.8699 19.7267L72.2383 18.9514C71.7783 19.3262 71.1139 19.543 70.1861 19.543V20.543ZM72.863 19.7322C73.6002 19.153 73.9501 18.3249 73.9501 17.323H72.9501C72.9501 18.0705 72.7027 18.5865 72.2452 18.9459L72.863 19.7322ZM73.9501 17.323V4.58705H72.9501V17.323H73.9501ZM73.9501 4.58705C73.9501 4.48916 73.9798 4.41249 74.0596 4.3326L73.3525 3.62549C73.0911 3.88694 72.9501 4.2156 72.9501 4.58705H73.9501ZM74.0596 4.3326C74.1395 4.25271 74.2162 4.22305 74.3141 4.22305V3.22305C73.9426 3.22305 73.614 3.36405 73.3525 3.62549L74.0596 4.3326ZM74.3141 4.22305H81.0021V3.22305H74.3141V4.22305ZM81.0021 4.22305C81.1 4.22305 81.1767 4.25271 81.2565 4.3326L81.9636 3.62549C81.7022 3.36405 81.3735 3.22305 81.0021 3.22305V4.22305ZM81.2565 4.3326C81.3364 4.41249 81.3661 4.48916 81.3661 4.58705H82.3661C82.3661 4.2156 82.2251 3.88694 81.9637 3.62549L81.2565 4.3326ZM81.3661 4.58705V16.811H82.3661V4.58705H81.3661ZM81.3661 16.811C81.3661 20.0047 80.3527 22.2658 78.4014 23.7046L78.9948 24.5095C81.2675 22.8336 82.3661 20.2307 82.3661 16.811H81.3661ZM78.3994 23.7061C76.4222 25.1789 73.7021 25.943 70.1861 25.943V26.943C73.8381 26.943 76.7927 26.1498 78.9968 24.508L78.3994 23.7061ZM103.646 19.563H103.146V20.063H103.646V19.563ZM95.0056 19.563V20.063H95.5056V19.563H95.0056ZM95.0056 10.283H95.5056V9.78305H95.0056V10.283ZM88.5416 10.027L88.188 10.3806V10.3806L88.5416 10.027ZM110.046 10.027L110.399 10.3806L110.046 10.027ZM103.646 10.283V9.78305H103.146V10.283H103.646ZM103.646 20.063H109.438V19.063H103.646V20.063ZM109.438 20.063C109.535 20.063 109.612 20.0927 109.692 20.1726L110.399 19.4655C110.138 19.2041 109.809 19.063 109.438 19.063V20.063ZM109.692 20.1726C109.772 20.2525 109.802 20.3292 109.802 20.427H110.802C110.802 20.0556 110.661 19.7269 110.399 19.4655L109.692 20.1726ZM109.802 20.427V25.259H110.802V20.427H109.802ZM109.802 25.259C109.802 25.3569 109.772 25.4336 109.692 25.5135L110.399 26.2206C110.661 25.9592 110.802 25.6305 110.802 25.259H109.802ZM109.692 25.5135C109.612 25.5934 109.535 25.623 109.438 25.623V26.623C109.809 26.623 110.138 26.482 110.399 26.2206L109.692 25.5135ZM109.438 25.623H89.1496V26.623H109.438V25.623ZM89.1496 25.623C89.0517 25.623 88.975 25.5934 88.8951 25.5135L88.188 26.2206C88.4495 26.482 88.7781 26.623 89.1496 26.623V25.623ZM88.8951 25.5135C88.8153 25.4336 88.7856 25.3569 88.7856 25.259H87.7856C87.7856 25.6305 87.9266 25.9592 88.188 26.2206L88.8951 25.5135ZM88.7856 25.259V20.427H87.7856V25.259H88.7856ZM88.7856 20.427C88.7856 20.3292 88.8153 20.2525 88.8951 20.1726L88.188 19.4655C87.9266 19.7269 87.7856 20.0556 87.7856 20.427H88.7856ZM88.8951 20.1726C88.975 20.0927 89.0517 20.063 89.1496 20.063V19.063C88.7781 19.063 88.4495 19.2041 88.188 19.4655L88.8951 20.1726ZM89.1496 20.063H95.0056V19.063H89.1496V20.063ZM95.5056 19.563V10.283H94.5056V19.563H95.5056ZM95.0056 9.78305H89.1496V10.783H95.0056V9.78305ZM89.1496 9.78305C89.0517 9.78305 88.975 9.75338 88.8951 9.67349L88.188 10.3806C88.4495 10.642 88.7782 10.783 89.1496 10.783V9.78305ZM88.8951 9.67349C88.8153 9.5936 88.7856 9.51693 88.7856 9.41905H87.7856C87.7856 9.79049 87.9266 10.1192 88.188 10.3806L88.8951 9.67349ZM88.7856 9.41905V4.58705H87.7856V9.41905H88.7856ZM88.7856 4.58705C88.7856 4.48916 88.8153 4.41249 88.8951 4.3326L88.188 3.62549C87.9266 3.88694 87.7856 4.2156 87.7856 4.58705H88.7856ZM88.8951 4.3326C88.975 4.25271 89.0517 4.22305 89.1496 4.22305V3.22305C88.7781 3.22305 88.4495 3.36405 88.188 3.62549L88.8951 4.3326ZM89.1496 4.22305H109.438V3.22305H89.1496V4.22305ZM109.438 4.22305C109.535 4.22305 109.612 4.25271 109.692 4.3326L110.399 3.62549C110.138 3.36405 109.809 3.22305 109.438 3.22305V4.22305ZM109.692 4.3326C109.772 4.41249 109.802 4.48916 109.802 4.58705H110.802C110.802 4.2156 110.661 3.88694 110.399 3.62549L109.692 4.3326ZM109.802 4.58705V9.41905H110.802V4.58705H109.802ZM109.802 9.41905C109.802 9.51693 109.772 9.5936 109.692 9.67349L110.399 10.3806C110.661 10.1192 110.802 9.79049 110.802 9.41905H109.802ZM109.692 9.67349C109.612 9.75338 109.535 9.78305 109.438 9.78305V10.783C109.809 10.783 110.138 10.642 110.399 10.3806L109.692 9.67349ZM109.438 9.78305H103.646V10.783H109.438V9.78305ZM103.146 10.283V19.563H104.146V10.283H103.146ZM126.321 19.499L126.005 19.8867L126.012 19.8922L126.321 19.499ZM130.705 19.755L130.418 19.3454L130.705 19.755ZM131.793 18.411L131.346 18.1874L131.793 18.411ZM140.305 17.803L139.925 18.1284L139.951 18.1576L139.98 18.1827L140.305 17.803ZM139.217 22.123L139.625 22.4117L139.628 22.4084L139.217 22.123ZM135.217 25.227L135.425 25.6817L135.428 25.6806L135.217 25.227ZM122.609 25.419L122.424 25.8837L122.431 25.8863L122.609 25.419ZM118.385 22.219L117.979 22.5114L117.982 22.5142L118.385 22.219ZM118.385 7.65905L118.789 7.95421L118.791 7.95136L118.385 7.65905ZM122.609 4.45905L122.789 4.92558L122.792 4.92442L122.609 4.45905ZM135.217 4.65105L135.004 5.10363L135.011 5.1066L135.217 4.65105ZM139.217 7.75505L138.806 8.04038L138.809 8.04366L139.217 7.75505ZM140.305 12.075L140.659 12.4286V12.4286L140.305 12.075ZM131.793 11.435L131.346 11.6587L131.793 11.435ZM130.705 10.091L130.992 9.68143L130.705 10.091ZM126.321 10.347L126.012 9.95382L126.005 9.95943L126.321 10.347ZM124.957 17.483C124.957 18.4784 125.292 19.3051 126.005 19.8867L126.637 19.1114C126.199 18.7543 125.957 18.2371 125.957 17.483H124.957ZM126.012 19.8922C126.722 20.4501 127.642 20.703 128.721 20.703V19.703C127.795 19.703 127.115 19.4867 126.63 19.1059L126.012 19.8922ZM128.721 20.703C129.654 20.703 130.44 20.5511 130.992 20.1647L130.418 19.3454C130.117 19.5563 129.58 19.703 128.721 19.703V20.703ZM130.992 20.1647C131.503 19.8067 131.915 19.2859 132.24 18.6347L131.346 18.1874C131.074 18.7309 130.76 19.106 130.418 19.3454L130.992 20.1647ZM132.24 18.6347C132.465 18.1855 132.695 18.079 132.913 18.079V17.079C132.192 17.079 131.676 17.5273 131.346 18.1874L132.24 18.6347ZM132.913 18.079H139.825V17.079H132.913V18.079ZM139.825 18.079C139.867 18.079 139.89 18.0868 139.925 18.1284L140.685 17.4776C140.464 17.2206 140.167 17.079 139.825 17.079V18.079ZM139.98 18.1827C140.021 18.2183 140.029 18.2411 140.029 18.283H141.029C141.029 17.941 140.888 17.6437 140.63 17.4234L139.98 18.1827ZM140.029 18.283C140.029 19.4652 139.634 20.6475 138.807 21.8377L139.628 22.4084C140.55 21.0812 141.029 19.7035 141.029 18.283H140.029ZM138.809 21.8344C137.998 22.982 136.743 23.9674 135.007 24.7735L135.428 25.6806C137.275 24.8227 138.687 23.7388 139.625 22.4117L138.809 21.8344ZM135.009 24.7724C133.321 25.5454 131.231 25.943 128.721 25.943V26.943C131.331 26.943 133.572 26.5301 135.425 25.6817L135.009 24.7724ZM128.721 25.943C126.488 25.943 124.513 25.6091 122.787 24.9518L122.431 25.8863C124.29 26.5943 126.389 26.943 128.721 26.943V25.943ZM122.794 24.9544C121.104 24.2824 119.774 23.2715 118.789 21.9239L117.982 22.5142C119.087 24.0253 120.573 25.1477 122.424 25.8837L122.794 24.9544ZM118.791 21.9267C117.818 20.5775 117.317 18.8828 117.317 16.811H116.317C116.317 19.0486 116.861 20.9593 117.979 22.5114L118.791 21.9267ZM117.317 16.811V13.035H116.317V16.811H117.317ZM117.317 13.035C117.317 10.963 117.819 9.28069 118.789 7.95421L117.982 7.36389C116.861 8.89607 116.317 10.7977 116.317 13.035H117.317ZM118.791 7.95136C119.776 6.58437 121.103 5.57557 122.789 4.92557L122.429 3.99252C120.574 4.70786 119.085 5.83239 117.979 7.36674L118.791 7.95136ZM122.792 4.92442C124.516 4.24712 126.49 3.90305 128.721 3.90305V2.90305C126.387 2.90305 124.286 3.26297 122.426 3.99367L122.792 4.92442ZM128.721 3.90305C131.229 3.90305 133.318 4.31092 135.004 5.10358L135.43 4.19851C133.575 3.32717 131.333 2.90305 128.721 2.90305V3.90305ZM135.011 5.1066C136.744 5.8904 137.996 6.87411 138.807 8.04037L139.628 7.46972C138.689 6.11865 137.275 5.03303 135.423 4.19549L135.011 5.1066ZM138.809 8.04366C139.634 9.21089 140.029 10.3813 140.029 11.563H141.029C141.029 10.1421 140.55 8.77387 139.625 7.46643L138.809 8.04366ZM140.029 11.563C140.029 11.6086 140.017 11.6556 139.952 11.7215L140.659 12.4286C140.891 12.1958 141.029 11.9015 141.029 11.563H140.029ZM139.952 11.7215C139.923 11.7496 139.893 11.767 139.825 11.767V12.767C140.141 12.767 140.431 12.6565 140.659 12.4286L139.952 11.7215ZM139.825 11.767H132.913V12.767H139.825V11.767ZM132.913 11.767C132.695 11.767 132.465 11.6606 132.24 11.2114L131.346 11.6587C131.676 12.3188 132.192 12.767 132.913 12.767V11.767ZM132.24 11.2114C131.915 10.5602 131.503 10.0394 130.992 9.68143L130.418 10.5007C130.76 10.74 131.074 11.1152 131.346 11.6587L132.24 11.2114ZM130.992 9.68143C130.44 9.295 129.654 9.14305 128.721 9.14305V10.143C129.58 10.143 130.117 10.2898 130.418 10.5007L130.992 9.68143ZM128.721 9.14305C127.642 9.14305 126.722 9.39601 126.012 9.95389L126.63 10.7402C127.115 10.3594 127.795 10.143 128.721 10.143V9.14305ZM126.005 9.95943C125.292 10.541 124.957 11.3677 124.957 12.363H125.957C125.957 11.609 126.199 11.0918 126.637 10.7347L126.005 9.95943ZM124.957 12.363V17.483H125.957V12.363H124.957ZM168.485 20.139L168.131 20.4926L168.485 20.139ZM168.485 25.867L168.131 25.5135V25.5135L168.485 25.867ZM168.165 3.97905L167.811 4.3326V4.3326L168.165 3.97905ZM168.165 9.70705L167.811 9.35349V9.35349L168.165 9.70705ZM155.109 9.96305V9.46305H154.609V9.96305H155.109ZM155.109 11.979H154.609V12.479H155.109V11.979ZM166.405 12.235L166.051 12.5886V12.5886L166.405 12.235ZM166.405 17.611L166.051 17.2575L166.405 17.611ZM155.109 17.867V17.367H154.609V17.867H155.109ZM155.109 19.883H154.609V20.383H155.109V19.883ZM167.877 20.383C167.974 20.383 168.051 20.4127 168.131 20.4926L168.838 19.7855C168.577 19.524 168.248 19.383 167.877 19.383V20.383ZM168.131 20.4926C168.211 20.5725 168.241 20.6492 168.241 20.747H169.241C169.241 20.3756 169.1 20.0469 168.838 19.7855L168.131 20.4926ZM168.241 20.747V25.259H169.241V20.747H168.241ZM168.241 25.259C168.241 25.3569 168.211 25.4336 168.131 25.5135L168.838 26.2206C169.1 25.9592 169.241 25.6305 169.241 25.259H168.241ZM168.131 25.5135C168.051 25.5934 167.974 25.623 167.877 25.623V26.623C168.248 26.623 168.577 26.482 168.838 26.2206L168.131 25.5135ZM167.877 25.623H147.653V26.623H167.877V25.623ZM147.653 25.623C147.555 25.623 147.478 25.5934 147.398 25.5135L146.691 26.2206C146.952 26.482 147.281 26.623 147.653 26.623V25.623ZM147.398 25.5135C147.318 25.4336 147.289 25.3569 147.289 25.259H146.289C146.289 25.6305 146.43 25.9592 146.691 26.2206L147.398 25.5135ZM147.289 25.259V4.58705H146.289V25.259H147.289ZM147.289 4.58705C147.289 4.48916 147.318 4.41249 147.398 4.3326L146.691 3.62549C146.43 3.88694 146.289 4.2156 146.289 4.58705H147.289ZM147.398 4.3326C147.478 4.25271 147.555 4.22305 147.653 4.22305V3.22305C147.281 3.22305 146.952 3.36405 146.691 3.62549L147.398 4.3326ZM147.653 4.22305H167.557V3.22305H147.653V4.22305ZM167.557 4.22305C167.654 4.22305 167.731 4.25271 167.811 4.3326L168.518 3.62549C168.257 3.36405 167.928 3.22305 167.557 3.22305V4.22305ZM167.811 4.3326C167.891 4.41249 167.921 4.48916 167.921 4.58705H168.921C168.921 4.2156 168.78 3.88694 168.518 3.62549L167.811 4.3326ZM167.921 4.58705V9.09905H168.921V4.58705H167.921ZM167.921 9.09905C167.921 9.19693 167.891 9.2736 167.811 9.35349L168.518 10.0606C168.78 9.79916 168.921 9.47049 168.921 9.09905H167.921ZM167.811 9.35349C167.731 9.43338 167.654 9.46305 167.557 9.46305V10.463C167.928 10.463 168.257 10.322 168.518 10.0606L167.811 9.35349ZM167.557 9.46305H155.109V10.463H167.557V9.46305ZM154.609 9.96305V11.979H155.609V9.96305H154.609ZM155.109 12.479H165.797V11.479H155.109V12.479ZM165.797 12.479C165.894 12.479 165.971 12.5087 166.051 12.5886L166.758 11.8815C166.497 11.6201 166.168 11.479 165.797 11.479V12.479ZM166.051 12.5886C166.131 12.6685 166.161 12.7452 166.161 12.843H167.161C167.161 12.4716 167.02 12.1429 166.758 11.8815L166.051 12.5886ZM166.161 12.843V17.003H167.161V12.843H166.161ZM166.161 17.003C166.161 17.1009 166.131 17.1776 166.051 17.2575L166.758 17.9646C167.02 17.7032 167.161 17.3745 167.161 17.003H166.161ZM166.051 17.2575C165.971 17.3374 165.894 17.367 165.797 17.367V18.367C166.168 18.367 166.497 18.226 166.758 17.9646L166.051 17.2575ZM165.797 17.367H155.109V18.367H165.797V17.367ZM154.609 17.867V19.883H155.609V17.867H154.609ZM155.109 20.383H167.877V19.383H155.109V20.383Z" fill="black" mask="url(#path-1-outside-1_341_162)"/>
</g>
<defs>
<filter id="filter0_d_341_162" x="0.449219" y="0.523438" width="168.293" height="31.6396" filterUnits="userSpaceOnUse" color-interpolation-filters="sRGB">
<feFlood flood-opacity="0" result="BackgroundImageFix"/>
<feColorMatrix in="SourceAlpha" type="matrix" values="0 0 0 0 0 0 0 0 0 0 0 0 0 0 0 0 0 0 127 0" result="hardAlpha"/>
<feOffset dy="3"/>
<feComposite in2="hardAlpha" operator="out"/>
<feColorMatrix type="matrix" values="0 0 0 0 0.375 0 0 0 0 0.140152 0 0 0 0 0 0 0 0 1 0"/>
<feBlend mode="normal" in2="BackgroundImageFix" result="effect1_dropShadow_341_162"/>
<feBlend mode="normal" in="SourceGraphic" in2="effect1_dropShadow_341_162" result="shape"/>
</filter>
<linearGradient id="paint0_linear_341_162" x1="84.8711" y1="-3.87695" x2="97.0797" y2="26.123" gradientUnits="userSpaceOnUse">
<stop stop-color="#FF6000"/>
<stop offset="1" stop-color="#EB6413"/>
</linearGradient>
</defs>
</svg>
