<svg width="169" height="33" viewBox="0 0 169 33" fill="none" xmlns="http://www.w3.org/2000/svg">
<g filter="url(#filter0_d_341_162)">
<mask id="path-1-outside-1_341_162" maskUnits="userSpaceOnUse" x="-0.699219" y="-0.666016" width="170" height="31" fill="black">
<rect fill="white" x="-0.699219" y="-0.666016" width="170" height="31"/>
<path d="M13.7568 12.062C16.1034 12.318 17.9808 12.734 19.3888 13.31C20.8181 13.886 21.8528 14.6433 22.4928 15.582C23.1328 16.5207 23.4528 17.694 23.4528 19.102C23.4528 21.0433 22.6634 22.6647 21.0848 23.966C19.5061 25.2673 17.3941 26.0993 14.7488 26.462V28.51C14.7488 28.7447 14.6634 28.9473 14.4928 29.118C14.3221 29.2887 14.1194 29.374 13.8848 29.374H9.59678C9.36211 29.374 9.15945 29.2887 8.98878 29.118C8.81811 28.9473 8.73278 28.7447 8.73278 28.51V26.462C6.89811 26.2273 5.35145 25.79 4.09278 25.15C2.85545 24.4887 1.92745 23.6993 1.30878 22.782C0.690115 21.8647 0.380781 20.8833 0.380781 19.838C0.380781 19.6247 0.444781 19.454 0.572781 19.326C0.722115 19.198 0.903448 19.134 1.11678 19.134H7.67678C8.12478 19.134 8.48745 19.2727 8.76478 19.55C9.12745 19.8913 9.53278 20.126 9.98078 20.254C10.4288 20.3607 11.0581 20.414 11.8688 20.414C13.8954 20.414 14.9088 20.1047 14.9088 19.486C14.9088 19.23 14.7701 19.0167 14.4928 18.846C14.2368 18.654 13.7674 18.494 13.0848 18.366C12.4234 18.2167 11.4421 18.0673 10.1408 17.918C7.21811 17.5767 4.97811 16.8513 3.42078 15.742C1.86345 14.6113 1.08478 13.022 1.08478 10.974C1.08478 9.16065 1.76745 7.62465 3.13278 6.36598C4.49811 5.08598 6.36478 4.25398 8.73278 3.86998V1.59798C8.73278 1.36332 8.81811 1.16065 8.98878 0.989983C9.15945 0.819317 9.36211 0.733984 9.59678 0.733984H13.8848C14.1194 0.733984 14.3221 0.819317 14.4928 0.989983C14.6634 1.16065 14.7488 1.36332 14.7488 1.59798V3.86998C16.3914 4.14732 17.8101 4.63798 19.0048 5.34198C20.1994 6.04598 21.1061 6.83532 21.7248 7.70998C22.3648 8.58465 22.6848 9.42732 22.6848 10.238C22.6848 10.4513 22.6101 10.622 22.4608 10.75C22.3328 10.878 22.1514 10.942 21.9168 10.942H15.0368C14.6528 10.942 14.3221 10.814 14.0448 10.558C13.8101 10.3447 13.5328 10.174 13.2128 10.046C12.8928 9.91798 12.4021 9.85398 11.7408 9.85398C10.3114 9.85398 9.59678 10.1526 9.59678 10.75C9.59678 11.07 9.87411 11.326 10.4288 11.518C10.9834 11.6887 12.0928 11.87 13.7568 12.062Z"/>
<path d="M51.9843 17.022C51.9843 20.2647 50.9176 22.686 48.7843 24.286C46.6509 25.8647 43.8029 26.654 40.2403 26.654C37.6803 26.654 35.4936 26.2487 33.6803 25.438C31.8883 24.606 30.5336 23.5607 29.6163 22.302C28.7203 21.0433 28.2723 19.774 28.2723 18.494C28.2723 18.302 28.3363 18.142 28.4643 18.014C28.6136 17.8647 28.7843 17.79 28.9763 17.79H36.2083C36.4003 17.79 36.5603 17.854 36.6883 17.982C36.8376 18.11 36.9443 18.2807 37.0083 18.494C37.4136 19.774 38.4376 20.414 40.0803 20.414C41.0829 20.414 41.8723 20.1793 42.4483 19.71C43.0456 19.2407 43.3443 18.5687 43.3443 17.694V10.494H31.6643C31.4296 10.494 31.2269 10.4087 31.0563 10.238C30.8856 10.0673 30.8003 9.86465 30.8003 9.62998V4.79798C30.8003 4.56332 30.8856 4.36065 31.0563 4.18998C31.2269 4.01932 31.4296 3.93398 31.6643 3.93398H51.1203C51.3549 3.93398 51.5576 4.01932 51.7283 4.18998C51.8989 4.36065 51.9843 4.56332 51.9843 4.79798V17.022ZM70.1158 26.654C66.5318 26.654 63.6838 25.8753 61.5718 24.318C59.4811 22.7607 58.4358 20.3287 58.4358 17.022V4.79798C58.4358 4.56332 58.5211 4.36065 58.6918 4.18998C58.8624 4.01932 59.0651 3.93398 59.2998 3.93398H65.9878C66.2224 3.93398 66.4251 4.01932 66.5958 4.18998C66.7664 4.36065 66.8518 4.56332 66.8518 4.79798V17.534C66.8518 18.4087 67.1398 19.0807 67.7158 19.55C68.3131 20.0193 69.1131 20.254 70.1158 20.254C71.1184 20.254 71.9078 20.0193 72.4838 19.55C73.0811 19.0807 73.3798 18.4087 73.3798 17.534V4.79798C73.3798 4.56332 73.4651 4.36065 73.6358 4.18998C73.8064 4.01932 74.0091 3.93398 74.2438 3.93398H80.9318C81.1664 3.93398 81.3691 4.01932 81.5398 4.18998C81.7104 4.36065 81.7958 4.56332 81.7958 4.79798V17.022C81.7958 20.3287 80.7398 22.7607 78.6278 24.318C76.5371 25.8753 73.6998 26.654 70.1158 26.654ZM103.575 19.774H109.367C109.602 19.774 109.805 19.8593 109.975 20.03C110.146 20.2007 110.231 20.4033 110.231 20.638V25.47C110.231 25.7047 110.146 25.9073 109.975 26.078C109.805 26.2487 109.602 26.334 109.367 26.334H89.0793C88.8446 26.334 88.642 26.2487 88.4713 26.078C88.3006 25.9073 88.2153 25.7047 88.2153 25.47V20.638C88.2153 20.4033 88.3006 20.2007 88.4713 20.03C88.642 19.8593 88.8446 19.774 89.0793 19.774H94.9353V10.494H89.0793C88.8446 10.494 88.642 10.4087 88.4713 10.238C88.3006 10.0673 88.2153 9.86465 88.2153 9.62998V4.79798C88.2153 4.56332 88.3006 4.36065 88.4713 4.18998C88.642 4.01932 88.8446 3.93398 89.0793 3.93398H109.367C109.602 3.93398 109.805 4.01932 109.975 4.18998C110.146 4.36065 110.231 4.56332 110.231 4.79798V9.62998C110.231 9.86465 110.146 10.0673 109.975 10.238C109.805 10.4087 109.602 10.494 109.367 10.494H103.575V19.774ZM125.387 17.694C125.387 18.5687 125.675 19.2407 126.251 19.71C126.848 20.1793 127.648 20.414 128.651 20.414C129.547 20.414 130.208 20.2647 130.635 19.966C131.061 19.6673 131.424 19.2193 131.723 18.622C132 18.0673 132.373 17.79 132.843 17.79H139.755C139.947 17.79 140.107 17.8647 140.235 18.014C140.384 18.142 140.459 18.302 140.459 18.494C140.459 19.7953 140.021 21.0753 139.147 22.334C138.272 23.5713 136.939 24.606 135.147 25.438C133.376 26.2487 131.211 26.654 128.651 26.654C126.368 26.654 124.331 26.3127 122.539 25.63C120.768 24.926 119.36 23.8593 118.315 22.43C117.269 20.9793 116.747 19.1767 116.747 17.022V13.246C116.747 11.0913 117.269 9.29932 118.315 7.86998C119.36 6.41932 120.768 5.35265 122.539 4.66998C124.331 3.96598 126.368 3.61398 128.651 3.61398C131.211 3.61398 133.376 4.02998 135.147 4.86198C136.939 5.67265 138.272 6.70732 139.147 7.96598C140.021 9.20332 140.459 10.4727 140.459 11.774C140.459 11.966 140.384 12.1367 140.235 12.286C140.107 12.414 139.947 12.478 139.755 12.478H132.843C132.373 12.478 132 12.2007 131.723 11.646C131.424 11.0487 131.061 10.6007 130.635 10.302C130.208 10.0033 129.547 9.85398 128.651 9.85398C127.648 9.85398 126.848 10.0886 126.251 10.558C125.675 11.0273 125.387 11.6993 125.387 12.574V17.694ZM167.806 20.094C168.041 20.094 168.244 20.1793 168.414 20.35C168.585 20.5207 168.67 20.7233 168.67 20.958V25.47C168.67 25.7047 168.585 25.9073 168.414 26.078C168.244 26.2487 168.041 26.334 167.806 26.334H147.582C147.348 26.334 147.145 26.2487 146.974 26.078C146.804 25.9073 146.718 25.7047 146.718 25.47V4.79798C146.718 4.56332 146.804 4.36065 146.974 4.18998C147.145 4.01932 147.348 3.93398 147.582 3.93398H167.486C167.721 3.93398 167.924 4.01932 168.094 4.18998C168.265 4.36065 168.35 4.56332 168.35 4.79798V9.30998C168.35 9.54465 168.265 9.74732 168.094 9.91798C167.924 10.0887 167.721 10.174 167.486 10.174H155.038V12.19H165.726C165.961 12.19 166.164 12.2753 166.334 12.446C166.505 12.6167 166.59 12.8193 166.59 13.054V17.214C166.59 17.4487 166.505 17.6513 166.334 17.822C166.164 17.9927 165.961 18.078 165.726 18.078H155.038V20.094H167.806Z"/>
</mask>
<path d="M13.7568 12.062C16.1034 12.318 17.9808 12.734 19.3888 13.31C20.8181 13.886 21.8528 14.6433 22.4928 15.582C23.1328 16.5207 23.4528 17.694 23.4528 19.102C23.4528 21.0433 22.6634 22.6647 21.0848 23.966C19.5061 25.2673 17.3941 26.0993 14.7488 26.462V28.51C14.7488 28.7447 14.6634 28.9473 14.4928 29.118C14.3221 29.2887 14.1194 29.374 13.8848 29.374H9.59678C9.36211 29.374 9.15945 29.2887 8.98878 29.118C8.81811 28.9473 8.73278 28.7447 8.73278 28.51V26.462C6.89811 26.2273 5.35145 25.79 4.09278 25.15C2.85545 24.4887 1.92745 23.6993 1.30878 22.782C0.690115 21.8647 0.380781 20.8833 0.380781 19.838C0.380781 19.6247 0.444781 19.454 0.572781 19.326C0.722115 19.198 0.903448 19.134 1.11678 19.134H7.67678C8.12478 19.134 8.48745 19.2727 8.76478 19.55C9.12745 19.8913 9.53278 20.126 9.98078 20.254C10.4288 20.3607 11.0581 20.414 11.8688 20.414C13.8954 20.414 14.9088 20.1047 14.9088 19.486C14.9088 19.23 14.7701 19.0167 14.4928 18.846C14.2368 18.654 13.7674 18.494 13.0848 18.366C12.4234 18.2167 11.4421 18.0673 10.1408 17.918C7.21811 17.5767 4.97811 16.8513 3.42078 15.742C1.86345 14.6113 1.08478 13.022 1.08478 10.974C1.08478 9.16065 1.76745 7.62465 3.13278 6.36598C4.49811 5.08598 6.36478 4.25398 8.73278 3.86998V1.59798C8.73278 1.36332 8.81811 1.16065 8.98878 0.989983C9.15945 0.819317 9.36211 0.733984 9.59678 0.733984H13.8848C14.1194 0.733984 14.3221 0.819317 14.4928 0.989983C14.6634 1.16065 14.7488 1.36332 14.7488 1.59798V3.86998C16.3914 4.14732 17.8101 4.63798 19.0048 5.34198C20.1994 6.04598 21.1061 6.83532 21.7248 7.70998C22.3648 8.58465 22.6848 9.42732 22.6848 10.238C22.6848 10.4513 22.6101 10.622 22.4608 10.75C22.3328 10.878 22.1514 10.942 21.9168 10.942H15.0368C14.6528 10.942 14.3221 10.814 14.0448 10.558C13.8101 10.3447 13.5328 10.174 13.2128 10.046C12.8928 9.91798 12.4021 9.85398 11.7408 9.85398C10.3114 9.85398 9.59678 10.1526 9.59678 10.75C9.59678 11.07 9.87411 11.326 10.4288 11.518C10.9834 11.6887 12.0928 11.87 13.7568 12.062Z" fill="white"/>
<path d="M51.9843 17.022C51.9843 20.2647 50.9176 22.686 48.7843 24.286C46.6509 25.8647 43.8029 26.654 40.2403 26.654C37.6803 26.654 35.4936 26.2487 33.6803 25.438C31.8883 24.606 30.5336 23.5607 29.6163 22.302C28.7203 21.0433 28.2723 19.774 28.2723 18.494C28.2723 18.302 28.3363 18.142 28.4643 18.014C28.6136 17.8647 28.7843 17.79 28.9763 17.79H36.2083C36.4003 17.79 36.5603 17.854 36.6883 17.982C36.8376 18.11 36.9443 18.2807 37.0083 18.494C37.4136 19.774 38.4376 20.414 40.0803 20.414C41.0829 20.414 41.8723 20.1793 42.4483 19.71C43.0456 19.2407 43.3443 18.5687 43.3443 17.694V10.494H31.6643C31.4296 10.494 31.2269 10.4087 31.0563 10.238C30.8856 10.0673 30.8003 9.86465 30.8003 9.62998V4.79798C30.8003 4.56332 30.8856 4.36065 31.0563 4.18998C31.2269 4.01932 31.4296 3.93398 31.6643 3.93398H51.1203C51.3549 3.93398 51.5576 4.01932 51.7283 4.18998C51.8989 4.36065 51.9843 4.56332 51.9843 4.79798V17.022ZM70.1158 26.654C66.5318 26.654 63.6838 25.8753 61.5718 24.318C59.4811 22.7607 58.4358 20.3287 58.4358 17.022V4.79798C58.4358 4.56332 58.5211 4.36065 58.6918 4.18998C58.8624 4.01932 59.0651 3.93398 59.2998 3.93398H65.9878C66.2224 3.93398 66.4251 4.01932 66.5958 4.18998C66.7664 4.36065 66.8518 4.56332 66.8518 4.79798V17.534C66.8518 18.4087 67.1398 19.0807 67.7158 19.55C68.3131 20.0193 69.1131 20.254 70.1158 20.254C71.1184 20.254 71.9078 20.0193 72.4838 19.55C73.0811 19.0807 73.3798 18.4087 73.3798 17.534V4.79798C73.3798 4.56332 73.4651 4.36065 73.6358 4.18998C73.8064 4.01932 74.0091 3.93398 74.2438 3.93398H80.9318C81.1664 3.93398 81.3691 4.01932 81.5398 4.18998C81.7104 4.36065 81.7958 4.56332 81.7958 4.79798V17.022C81.7958 20.3287 80.7398 22.7607 78.6278 24.318C76.5371 25.8753 73.6998 26.654 70.1158 26.654ZM103.575 19.774H109.367C109.602 19.774 109.805 19.8593 109.975 20.03C110.146 20.2007 110.231 20.4033 110.231 20.638V25.47C110.231 25.7047 110.146 25.9073 109.975 26.078C109.805 26.2487 109.602 26.334 109.367 26.334H89.0793C88.8446 26.334 88.642 26.2487 88.4713 26.078C88.3006 25.9073 88.2153 25.7047 88.2153 25.47V20.638C88.2153 20.4033 88.3006 20.2007 88.4713 20.03C88.642 19.8593 88.8446 19.774 89.0793 19.774H94.9353V10.494H89.0793C88.8446 10.494 88.642 10.4087 88.4713 10.238C88.3006 10.0673 88.2153 9.86465 88.2153 9.62998V4.79798C88.2153 4.56332 88.3006 4.36065 88.4713 4.18998C88.642 4.01932 88.8446 3.93398 89.0793 3.93398H109.367C109.602 3.93398 109.805 4.01932 109.975 4.18998C110.146 4.36065 110.231 4.56332 110.231 4.79798V9.62998C110.231 9.86465 110.146 10.0673 109.975 10.238C109.805 10.4087 109.602 10.494 109.367 10.494H103.575V19.774ZM125.387 17.694C125.387 18.5687 125.675 19.2407 126.251 19.71C126.848 20.1793 127.648 20.414 128.651 20.414C129.547 20.414 130.208 20.2647 130.635 19.966C131.061 19.6673 131.424 19.2193 131.723 18.622C132 18.0673 132.373 17.79 132.843 17.79H139.755C139.947 17.79 140.107 17.8647 140.235 18.014C140.384 18.142 140.459 18.302 140.459 18.494C140.459 19.7953 140.021 21.0753 139.147 22.334C138.272 23.5713 136.939 24.606 135.147 25.438C133.376 26.2487 131.211 26.654 128.651 26.654C126.368 26.654 124.331 26.3127 122.539 25.63C120.768 24.926 119.36 23.8593 118.315 22.43C117.269 20.9793 116.747 19.1767 116.747 17.022V13.246C116.747 11.0913 117.269 9.29932 118.315 7.86998C119.36 6.41932 120.768 5.35265 122.539 4.66998C124.331 3.96598 126.368 3.61398 128.651 3.61398C131.211 3.61398 133.376 4.02998 135.147 4.86198C136.939 5.67265 138.272 6.70732 139.147 7.96598C140.021 9.20332 140.459 10.4727 140.459 11.774C140.459 11.966 140.384 12.1367 140.235 12.286C140.107 12.414 139.947 12.478 139.755 12.478H132.843C132.373 12.478 132 12.2007 131.723 11.646C131.424 11.0487 131.061 10.6007 130.635 10.302C130.208 10.0033 129.547 9.85398 128.651 9.85398C127.648 9.85398 126.848 10.0886 126.251 10.558C125.675 11.0273 125.387 11.6993 125.387 12.574V17.694ZM167.806 20.094C168.041 20.094 168.244 20.1793 168.414 20.35C168.585 20.5207 168.67 20.7233 168.67 20.958V25.47C168.67 25.7047 168.585 25.9073 168.414 26.078C168.244 26.2487 168.041 26.334 167.806 26.334H147.582C147.348 26.334 147.145 26.2487 146.974 26.078C146.804 25.9073 146.718 25.7047 146.718 25.47V4.79798C146.718 4.56332 146.804 4.36065 146.974 4.18998C147.145 4.01932 147.348 3.93398 147.582 3.93398H167.486C167.721 3.93398 167.924 4.01932 168.094 4.18998C168.265 4.36065 168.35 4.56332 168.35 4.79798V9.30998C168.35 9.54465 168.265 9.74732 168.094 9.91798C167.924 10.0887 167.721 10.174 167.486 10.174H155.038V12.19H165.726C165.961 12.19 166.164 12.2753 166.334 12.446C166.505 12.6167 166.59 12.8193 166.59 13.054V17.214C166.59 17.4487 166.505 17.6513 166.334 17.822C166.164 17.9927 165.961 18.078 165.726 18.078H155.038V20.094H167.806Z" fill="#0AC416"/>
<path d="M13.7568 12.062L13.6995 12.5587L13.7026 12.559L13.7568 12.062ZM19.3888 13.31L19.1995 13.7728L19.2019 13.7737L19.3888 13.31ZM22.4928 15.582L22.9059 15.3003H22.9059L22.4928 15.582ZM21.0848 23.966L21.4028 24.3518L21.0848 23.966ZM14.7488 26.462L14.6809 25.9666L14.2488 26.0259V26.462H14.7488ZM14.4928 29.118L14.8463 29.4715L14.4928 29.118ZM8.98878 29.118L9.34234 28.7644H9.34233L8.98878 29.118ZM8.73278 26.462H9.23278V26.0219L8.79622 25.966L8.73278 26.462ZM4.09278 25.15L3.85704 25.591L3.86616 25.5957L4.09278 25.15ZM0.572781 19.326L0.247386 18.9464L0.232806 18.9589L0.219228 18.9724L0.572781 19.326ZM8.76478 19.55L8.41123 19.9035L8.41658 19.9089L8.4221 19.9141L8.76478 19.55ZM9.98078 20.254L9.84342 20.7347L9.85413 20.7378L9.86497 20.7404L9.98078 20.254ZM14.4928 18.846L14.1928 19.246L14.2112 19.2598L14.2307 19.2718L14.4928 18.846ZM13.0848 18.366L12.9747 18.8537L12.9836 18.8557L12.9926 18.8574L13.0848 18.366ZM10.1408 17.918L10.0828 18.4146L10.0838 18.4147L10.1408 17.918ZM3.42078 15.742L3.12701 16.1466L3.13069 16.1492L3.42078 15.742ZM3.13278 6.36598L3.47169 6.73362L3.47475 6.73075L3.13278 6.36598ZM8.73278 3.86998L8.81282 4.36354L9.23278 4.29543V3.86998H8.73278ZM8.98878 0.989983L8.63523 0.636428L8.63523 0.636429L8.98878 0.989983ZM14.4928 0.989983L14.8463 0.636431L14.8463 0.636428L14.4928 0.989983ZM14.7488 3.86998H14.2488V4.29264L14.6655 4.36301L14.7488 3.86998ZM21.7248 7.70998L21.3165 7.99875L21.3213 8.00524L21.7248 7.70998ZM22.4608 10.75L22.1354 10.3704L22.1208 10.3829L22.1072 10.3964L22.4608 10.75ZM14.0448 10.558L14.3839 10.1906L14.3811 10.188L14.0448 10.558ZM13.2128 10.046L13.0271 10.5102H13.0271L13.2128 10.046ZM10.4288 11.518L10.2652 11.9905L10.2734 11.9933L10.2817 11.9959L10.4288 11.518ZM13.7026 12.559C16.0254 12.8124 17.8516 13.2213 19.1995 13.7728L19.5781 12.8472C18.11 12.2466 16.1815 11.8235 13.811 11.5649L13.7026 12.559ZM19.2019 13.7737C20.5713 14.3256 21.512 15.0311 22.0797 15.8637L22.9059 15.3003C22.1935 14.2555 21.0649 13.4464 19.5757 12.8462L19.2019 13.7737ZM22.0797 15.8637C22.6508 16.7013 22.9528 17.7703 22.9528 19.102H23.9528C23.9528 17.6177 23.6148 16.34 22.9059 15.3003L22.0797 15.8637ZM22.9528 19.102C22.9528 20.885 22.2373 22.3679 20.7667 23.5802L21.4028 24.3518C23.0896 22.9614 23.9528 21.2016 23.9528 19.102H22.9528ZM20.7667 23.5802C19.2784 24.807 17.2618 25.6128 14.6809 25.9666L14.8167 26.9573C17.5265 26.5858 19.7338 25.7276 21.4028 24.3518L20.7667 23.5802ZM14.2488 26.462V28.51H15.2488V26.462H14.2488ZM14.2488 28.51C14.2488 28.6079 14.2191 28.6845 14.1392 28.7644L14.8463 29.4715C15.1078 29.2101 15.2488 28.8814 15.2488 28.51H14.2488ZM14.1392 28.7644C14.0593 28.8443 13.9827 28.874 13.8848 28.874V29.874C14.2562 29.874 14.5849 29.733 14.8463 29.4715L14.1392 28.7644ZM13.8848 28.874H9.59678V29.874H13.8848V28.874ZM9.59678 28.874C9.4989 28.874 9.42223 28.8443 9.34234 28.7644L8.63523 29.4715C8.89667 29.733 9.22533 29.874 9.59678 29.874V28.874ZM9.34233 28.7644C9.26244 28.6845 9.23278 28.6079 9.23278 28.51H8.23278C8.23278 28.8814 8.37379 29.2101 8.63523 29.4715L9.34233 28.7644ZM9.23278 28.51V26.462H8.23278V28.51H9.23278ZM8.79622 25.966C7.00178 25.7365 5.51388 25.3117 4.31941 24.7043L3.86616 25.5957C5.18901 26.2683 6.79445 26.7181 8.66934 26.9579L8.79622 25.966ZM4.32847 24.709C3.14421 24.076 2.28582 23.3365 1.72332 22.5024L0.894245 23.0616C1.56908 24.0622 2.56669 24.9013 3.85709 25.591L4.32847 24.709ZM1.72332 22.5024C1.15692 21.6626 0.880781 20.7777 0.880781 19.838H-0.119219C-0.119219 20.9889 0.223308 22.0667 0.894245 23.0616L1.72332 22.5024ZM0.880781 19.838C0.880781 19.7318 0.908703 19.6972 0.926335 19.6795L0.219228 18.9724C-0.0191398 19.2108 -0.119219 19.5175 -0.119219 19.838H0.880781ZM0.898177 19.7056C0.948947 19.6621 1.01191 19.634 1.11678 19.634V18.634C0.794986 18.634 0.495282 18.7339 0.247386 18.9464L0.898177 19.7056ZM1.11678 19.634H7.67678V18.634H1.11678V19.634ZM7.67678 19.634C8.01267 19.634 8.24123 19.7335 8.41123 19.9035L9.11833 19.1964C8.73367 18.8118 8.23689 18.634 7.67678 18.634V19.634ZM8.4221 19.9141C8.8388 20.3063 9.3134 20.5833 9.84342 20.7347L10.1181 19.7732C9.75217 19.6687 9.4161 19.4764 9.10746 19.1859L8.4221 19.9141ZM9.86497 20.7404C10.3691 20.8604 11.0438 20.914 11.8688 20.914V19.914C11.0724 19.914 10.4885 19.8609 10.0966 19.7676L9.86497 20.7404ZM11.8688 20.914C12.8952 20.914 13.7154 20.8371 14.2948 20.6602C14.8406 20.4936 15.4088 20.153 15.4088 19.486H14.4088C14.4088 19.4882 14.4087 19.4897 14.4086 19.4905C14.4085 19.491 14.4085 19.4912 14.4085 19.4914C14.4084 19.4916 14.4084 19.4917 14.4084 19.4917C14.4084 19.4917 14.4084 19.4916 14.4084 19.4916C14.4085 19.4915 14.4085 19.4914 14.4085 19.4914C14.4086 19.4912 14.4086 19.4912 14.4084 19.4916C14.4083 19.4917 14.4033 19.5029 14.3811 19.5232C14.3311 19.569 14.2198 19.6375 14.0028 19.7038C13.5689 19.8362 12.8691 19.914 11.8688 19.914V20.914ZM15.4088 19.486C15.4088 19.0084 15.134 18.6535 14.7548 18.4202L14.2307 19.2718C14.4062 19.3798 14.4088 19.4515 14.4088 19.486H15.4088ZM14.7928 18.446C14.4371 18.1792 13.8666 18.0039 13.1769 17.8745L12.9926 18.8574C13.6683 18.9841 14.0365 19.1287 14.1928 19.246L14.7928 18.446ZM13.1949 17.8783C12.5066 17.7228 11.5038 17.5711 10.1978 17.4212L10.0838 18.4147C11.3804 18.5635 12.3402 18.7105 12.9747 18.8537L13.1949 17.8783ZM10.1988 17.4214C7.31862 17.085 5.17233 16.3758 3.71087 15.3347L3.13069 16.1492C4.7839 17.3269 7.11761 18.0683 10.0828 18.4146L10.1988 17.4214ZM3.71454 15.3374C2.29621 14.3076 1.58478 12.8739 1.58478 10.974H0.584781C0.584781 13.1701 1.43068 14.915 3.12703 16.1466L3.71454 15.3374ZM1.58478 10.974C1.58478 9.30408 2.20623 7.9002 3.47168 6.73361L2.79388 5.99836C1.32867 7.34911 0.584781 9.01722 0.584781 10.974H1.58478ZM3.47475 6.73075C4.74956 5.53562 6.51548 4.73608 8.81282 4.36354L8.65275 3.37643C6.21408 3.77189 4.24667 4.63634 2.79081 6.00121L3.47475 6.73075ZM9.23278 3.86998V1.59798H8.23278V3.86998H9.23278ZM9.23278 1.59798C9.23278 1.5001 9.26244 1.42343 9.34234 1.34354L8.63523 0.636429C8.37379 0.897872 8.23278 1.22653 8.23278 1.59798H9.23278ZM9.34233 1.34354C9.42222 1.26365 9.49889 1.23398 9.59678 1.23398V0.233984C9.22534 0.233984 8.89667 0.374987 8.63523 0.636428L9.34233 1.34354ZM9.59678 1.23398H13.8848V0.233984H9.59678V1.23398ZM13.8848 1.23398C13.9827 1.23398 14.0593 1.26365 14.1392 1.34354L14.8463 0.636428C14.5849 0.374987 14.2562 0.233984 13.8848 0.233984V1.23398ZM14.1392 1.34353C14.2191 1.42343 14.2488 1.5001 14.2488 1.59798H15.2488C15.2488 1.22654 15.1078 0.897873 14.8463 0.636431L14.1392 1.34353ZM14.2488 1.59798V3.86998H15.2488V1.59798H14.2488ZM14.6655 4.36301C16.2598 4.63217 17.6183 5.10529 18.7509 5.77275L19.2586 4.91121C18.002 4.17067 16.5231 3.66246 14.832 3.37696L14.6655 4.36301ZM18.7509 5.77275C19.9019 6.45099 20.7489 7.19611 21.3166 7.99872L22.133 7.42125C21.4634 6.47452 20.497 5.64098 19.2586 4.91121L18.7509 5.77275ZM21.3213 8.00524C21.9195 8.82278 22.1848 9.56411 22.1848 10.238H23.1848C23.1848 9.29052 22.8101 8.34652 22.1283 7.41473L21.3213 8.00524ZM22.1848 10.238C22.1848 10.3193 22.1637 10.3461 22.1354 10.3704L22.7862 11.1296C23.0565 10.8979 23.1848 10.5833 23.1848 10.238H22.1848ZM22.1072 10.3964C22.0985 10.4052 22.0598 10.442 21.9168 10.442V11.442C22.2431 11.442 22.5671 11.3508 22.8143 11.1035L22.1072 10.3964ZM21.9168 10.442H15.0368V11.442H21.9168V10.442ZM15.0368 10.442C14.776 10.442 14.5671 10.3597 14.3839 10.1906L13.7056 10.9254C14.0771 11.2683 14.5295 11.442 15.0368 11.442V10.442ZM14.3811 10.188C14.0986 9.93117 13.7691 9.72999 13.3985 9.58175L13.0271 10.5102C13.2965 10.618 13.5216 10.7581 13.7084 10.928L14.3811 10.188ZM13.3985 9.58175C12.9873 9.41726 12.4182 9.35398 11.7408 9.35398V10.354C12.3861 10.354 12.7983 10.4187 13.0271 10.5102L13.3985 9.58175ZM11.7408 9.35398C11.0064 9.35398 10.3902 9.42851 9.93999 9.61665C9.7099 9.71281 9.49684 9.84944 9.33989 10.0462C9.17675 10.2507 9.09678 10.4925 9.09678 10.75H10.0968C10.0968 10.7088 10.1061 10.6892 10.1217 10.6698C10.1434 10.6425 10.1983 10.5925 10.3256 10.5393C10.5901 10.4288 11.0459 10.354 11.7408 10.354V9.35398ZM9.09678 10.75C9.09678 11.4265 9.69093 11.7917 10.2652 11.9905L10.5923 11.0455C10.3478 10.9608 10.2117 10.8771 10.1439 10.8146C10.1126 10.7857 10.1022 10.7671 10.0993 10.7611C10.0972 10.7568 10.0968 10.755 10.0968 10.75H9.09678ZM10.2817 11.9959C10.8873 12.1822 12.0419 12.3674 13.6995 12.5587L13.8141 11.5653C12.1436 11.3725 11.0796 11.1951 10.5758 11.0401L10.2817 11.9959ZM48.7843 24.286L49.0817 24.6879L49.0843 24.686L48.7843 24.286ZM33.6803 25.438L33.4697 25.8915L33.4762 25.8944L33.6803 25.438ZM29.6163 22.302L29.2089 22.592L29.2122 22.5965L29.6163 22.302ZM28.4643 18.014L28.1107 17.6604L28.4643 18.014ZM36.6883 17.982L36.3347 18.3355L36.3483 18.3491L36.3629 18.3616L36.6883 17.982ZM37.0083 18.494L36.5293 18.6377L36.5316 18.6449L37.0083 18.494ZM42.4483 19.71L42.1393 19.3168L42.1324 19.3224L42.4483 19.71ZM43.3443 10.494H43.8443V9.99398H43.3443V10.494ZM31.0563 10.238L30.7027 10.5915V10.5915L31.0563 10.238ZM51.7283 4.18998L52.0818 3.83643V3.83643L51.7283 4.18998ZM51.4843 17.022C51.4843 20.1453 50.4641 22.4011 48.4843 23.886L49.0843 24.686C51.3711 22.9708 52.4843 20.384 52.4843 17.022H51.4843ZM48.4869 23.8841C46.4648 25.3804 43.7321 26.154 40.2403 26.154V27.154C43.8738 27.154 46.8371 26.3489 49.0817 24.6879L48.4869 23.8841ZM40.2403 26.154C37.7311 26.154 35.6178 25.7565 33.8843 24.9815L33.4762 25.8944C35.3694 26.7408 37.6295 27.154 40.2403 27.154V26.154ZM33.8908 24.9845C32.1555 24.1788 30.876 23.1816 30.0204 22.0075L29.2122 22.5965C30.1912 23.9397 31.621 25.0332 33.4697 25.8915L33.8908 24.9845ZM30.0236 22.012C29.1752 20.8201 28.7723 19.6501 28.7723 18.494H27.7723C27.7723 19.8979 28.2654 21.2665 29.2089 22.5919L30.0236 22.012ZM28.7723 18.494C28.7723 18.4257 28.7897 18.3956 28.8178 18.3675L28.1107 17.6604C27.8828 17.8883 27.7723 18.1783 27.7723 18.494H28.7723ZM28.8178 18.3675C28.8837 18.3017 28.9308 18.29 28.9763 18.29V17.29C28.6378 17.29 28.3435 17.4276 28.1107 17.6604L28.8178 18.3675ZM28.9763 18.29H36.2083V17.29H28.9763V18.29ZM36.2083 18.29C36.2766 18.29 36.3066 18.3074 36.3347 18.3355L37.0418 17.6284C36.8139 17.4005 36.524 17.29 36.2083 17.29V18.29ZM36.3629 18.3616C36.4302 18.4193 36.4891 18.5036 36.5294 18.6377L37.4872 18.3503C37.3994 18.0577 37.245 17.8007 37.0137 17.6024L36.3629 18.3616ZM36.5316 18.6449C36.7659 19.3847 37.1911 19.9679 37.8153 20.358C38.4305 20.7425 39.1979 20.914 40.0803 20.914V19.914C39.32 19.914 38.7541 19.7655 38.3453 19.51C37.9455 19.2601 37.656 18.8833 37.485 18.343L36.5316 18.6449ZM40.0803 20.914C41.1578 20.914 42.0721 20.6615 42.7641 20.0976L42.1324 19.3224C41.6725 19.6971 41.0081 19.914 40.0803 19.914V20.914ZM42.7572 20.1031C43.4944 19.5239 43.8443 18.6959 43.8443 17.694H42.8443C42.8443 18.4414 42.5968 18.9574 42.1394 19.3168L42.7572 20.1031ZM43.8443 17.694V10.494H42.8443V17.694H43.8443ZM43.3443 9.99398H31.6643V10.994H43.3443V9.99398ZM31.6643 9.99398C31.5664 9.99398 31.4897 9.96432 31.4098 9.88443L30.7027 10.5915C30.9642 10.853 31.2928 10.994 31.6643 10.994V9.99398ZM31.4098 9.88443C31.3299 9.80454 31.3003 9.72787 31.3003 9.62998H30.3003C30.3003 10.0014 30.4413 10.3301 30.7027 10.5915L31.4098 9.88443ZM31.3003 9.62998V4.79798H30.3003V9.62998H31.3003ZM31.3003 4.79798C31.3003 4.7001 31.3299 4.62343 31.4098 4.54354L30.7027 3.83643C30.4413 4.09787 30.3003 4.42654 30.3003 4.79798H31.3003ZM31.4098 4.54354C31.4897 4.46364 31.5664 4.43398 31.6643 4.43398V3.43398C31.2928 3.43398 30.9642 3.57499 30.7027 3.83643L31.4098 4.54354ZM31.6643 4.43398H51.1203V3.43398H31.6643V4.43398ZM51.1203 4.43398C51.2182 4.43398 51.2948 4.46364 51.3747 4.54354L52.0818 3.83643C51.8204 3.57499 51.4917 3.43398 51.1203 3.43398V4.43398ZM51.3747 4.54354C51.4546 4.62343 51.4843 4.7001 51.4843 4.79798H52.4843C52.4843 4.42654 52.3433 4.09787 52.0818 3.83643L51.3747 4.54354ZM51.4843 4.79798V17.022H52.4843V4.79798H51.4843ZM61.5718 24.318L61.2731 24.719L61.275 24.7204L61.5718 24.318ZM66.5958 4.18998L66.9493 3.83643V3.83643L66.5958 4.18998ZM67.7158 19.55L67.3999 19.9377L67.4069 19.9431L67.7158 19.55ZM72.4838 19.55L72.1748 19.1568L72.1679 19.1624L72.4838 19.55ZM81.5398 4.18998L81.8933 3.83643L81.8933 3.83643L81.5398 4.18998ZM78.6278 24.318L78.331 23.9156L78.3291 23.917L78.6278 24.318ZM70.1158 26.154C66.6002 26.154 63.8681 25.39 61.8685 23.9156L61.275 24.7204C63.4995 26.3606 66.4634 27.154 70.1158 27.154V26.154ZM61.8705 23.917C59.9399 22.4789 58.9358 20.2175 58.9358 17.022H57.9358C57.9358 20.4398 59.0224 23.0424 61.2731 24.719L61.8705 23.917ZM58.9358 17.022V4.79798H57.9358V17.022H58.9358ZM58.9358 4.79798C58.9358 4.7001 58.9654 4.62343 59.0453 4.54354L58.3382 3.83643C58.0768 4.09787 57.9358 4.42654 57.9358 4.79798H58.9358ZM59.0453 4.54354C59.1252 4.46365 59.2019 4.43398 59.2998 4.43398V3.43398C58.9283 3.43398 58.5997 3.57499 58.3382 3.83643L59.0453 4.54354ZM59.2998 4.43398H65.9878V3.43398H59.2998V4.43398ZM65.9878 4.43398C66.0857 4.43398 66.1623 4.46365 66.2422 4.54354L66.9493 3.83643C66.6879 3.57499 66.3592 3.43398 65.9878 3.43398V4.43398ZM66.2422 4.54354C66.3221 4.62343 66.3518 4.7001 66.3518 4.79798H67.3518C67.3518 4.42654 67.2108 4.09787 66.9493 3.83643L66.2422 4.54354ZM66.3518 4.79798V17.534H67.3518V4.79798H66.3518ZM66.3518 17.534C66.3518 18.5293 66.6862 19.356 67.3999 19.9376L68.0316 19.1624C67.5934 18.8053 67.3518 18.288 67.3518 17.534H66.3518ZM67.4069 19.9431C68.1169 20.501 69.037 20.754 70.1158 20.754V19.754C69.1892 19.754 68.5093 19.5376 68.0247 19.1568L67.4069 19.9431ZM70.1158 20.754C71.1933 20.754 72.1076 20.5015 72.7996 19.9376L72.1679 19.1624C71.708 19.5371 71.0436 19.754 70.1158 19.754V20.754ZM72.7927 19.9431C73.5299 19.3639 73.8798 18.5359 73.8798 17.534H72.8798C72.8798 18.2814 72.6323 18.7974 72.1749 19.1568L72.7927 19.9431ZM73.8798 17.534V4.79798H72.8798V17.534H73.8798ZM73.8798 4.79798C73.8798 4.7001 73.9094 4.62343 73.9893 4.54354L73.2822 3.83643C73.0208 4.09787 72.8798 4.42654 72.8798 4.79798H73.8798ZM73.9893 4.54354C74.0692 4.46364 74.1459 4.43398 74.2438 4.43398V3.43398C73.8723 3.43398 73.5437 3.57499 73.2822 3.83643L73.9893 4.54354ZM74.2438 4.43398H80.9318V3.43398H74.2438V4.43398ZM80.9318 4.43398C81.0297 4.43398 81.1063 4.46365 81.1862 4.54354L81.8933 3.83643C81.6319 3.57499 81.3032 3.43398 80.9318 3.43398V4.43398ZM81.1862 4.54354C81.2661 4.62343 81.2958 4.7001 81.2958 4.79798H82.2958C82.2958 4.42654 82.1548 4.09787 81.8933 3.83643L81.1862 4.54354ZM81.2958 4.79798V17.022H82.2958V4.79798H81.2958ZM81.2958 17.022C81.2958 20.2157 80.2823 22.4767 78.331 23.9156L78.9245 24.7204C81.1972 23.0446 82.2958 20.4416 82.2958 17.022H81.2958ZM78.3291 23.917C76.3518 25.3899 73.6317 26.154 70.1158 26.154V27.154C73.7678 27.154 76.7224 26.3608 78.9265 24.719L78.3291 23.917ZM103.575 19.774H103.075V20.274H103.575V19.774ZM94.9353 19.774V20.274H95.4353V19.774H94.9353ZM94.9353 10.494H95.4353V9.99398H94.9353V10.494ZM88.4713 10.238L88.1177 10.5915V10.5915L88.4713 10.238ZM109.975 10.238L110.329 10.5915L109.975 10.238ZM103.575 10.494V9.99398H103.075V10.494H103.575ZM103.575 20.274H109.367V19.274H103.575V20.274ZM109.367 20.274C109.465 20.274 109.542 20.3036 109.622 20.3835L110.329 19.6764C110.067 19.415 109.739 19.274 109.367 19.274V20.274ZM109.622 20.3835C109.702 20.4634 109.731 20.5401 109.731 20.638H110.731C110.731 20.2665 110.59 19.9379 110.329 19.6764L109.622 20.3835ZM109.731 20.638V25.47H110.731V20.638H109.731ZM109.731 25.47C109.731 25.5679 109.702 25.6445 109.622 25.7244L110.329 26.4315C110.59 26.1701 110.731 25.8414 110.731 25.47H109.731ZM109.622 25.7244C109.542 25.8043 109.465 25.834 109.367 25.834V26.834C109.739 26.834 110.067 26.693 110.329 26.4315L109.622 25.7244ZM109.367 25.834H89.0793V26.834H109.367V25.834ZM89.0793 25.834C88.9814 25.834 88.9047 25.8043 88.8248 25.7244L88.1177 26.4315C88.3792 26.693 88.7078 26.834 89.0793 26.834V25.834ZM88.8248 25.7244C88.7449 25.6445 88.7153 25.5679 88.7153 25.47H87.7153C87.7153 25.8414 87.8563 26.1701 88.1177 26.4315L88.8248 25.7244ZM88.7153 25.47V20.638H87.7153V25.47H88.7153ZM88.7153 20.638C88.7153 20.5401 88.7449 20.4634 88.8248 20.3835L88.1177 19.6764C87.8563 19.9379 87.7153 20.2665 87.7153 20.638H88.7153ZM88.8248 20.3835C88.9047 20.3036 88.9814 20.274 89.0793 20.274V19.274C88.7078 19.274 88.3792 19.415 88.1177 19.6764L88.8248 20.3835ZM89.0793 20.274H94.9353V19.274H89.0793V20.274ZM95.4353 19.774V10.494H94.4353V19.774H95.4353ZM94.9353 9.99398H89.0793V10.994H94.9353V9.99398ZM89.0793 9.99398C88.9814 9.99398 88.9047 9.96432 88.8248 9.88443L88.1177 10.5915C88.3792 10.853 88.7078 10.994 89.0793 10.994V9.99398ZM88.8248 9.88443C88.7449 9.80454 88.7153 9.72787 88.7153 9.62998H87.7153C87.7153 10.0014 87.8563 10.3301 88.1177 10.5915L88.8248 9.88443ZM88.7153 9.62998V4.79798H87.7153V9.62998H88.7153ZM88.7153 4.79798C88.7153 4.7001 88.7449 4.62343 88.8248 4.54354L88.1177 3.83643C87.8563 4.09787 87.7153 4.42654 87.7153 4.79798H88.7153ZM88.8248 4.54354C88.9047 4.46365 88.9814 4.43398 89.0793 4.43398V3.43398C88.7078 3.43398 88.3792 3.57499 88.1177 3.83643L88.8248 4.54354ZM89.0793 4.43398H109.367V3.43398H89.0793V4.43398ZM109.367 4.43398C109.465 4.43398 109.542 4.46364 109.622 4.54354L110.329 3.83643C110.067 3.57499 109.739 3.43398 109.367 3.43398V4.43398ZM109.622 4.54354C109.702 4.62343 109.731 4.7001 109.731 4.79798H110.731C110.731 4.42654 110.59 4.09787 110.329 3.83643L109.622 4.54354ZM109.731 4.79798V9.62998H110.731V4.79798H109.731ZM109.731 9.62998C109.731 9.72787 109.702 9.80454 109.622 9.88443L110.329 10.5915C110.59 10.3301 110.731 10.0014 110.731 9.62998H109.731ZM109.622 9.88443C109.542 9.96432 109.465 9.99398 109.367 9.99398V10.994C109.739 10.994 110.067 10.853 110.329 10.5915L109.622 9.88443ZM109.367 9.99398H103.575V10.994H109.367V9.99398ZM103.075 10.494V19.774H104.075V10.494H103.075ZM126.251 19.71L125.935 20.0977L125.942 20.1031L126.251 19.71ZM130.635 19.966L130.348 19.5564L130.635 19.966ZM131.723 18.622L131.276 18.3984L131.723 18.622ZM140.235 18.014L139.855 18.3394L139.88 18.3686L139.909 18.3936L140.235 18.014ZM139.147 22.334L139.555 22.6226L139.557 22.6193L139.147 22.334ZM135.147 25.438L135.355 25.8926L135.357 25.8915L135.147 25.438ZM122.539 25.63L122.354 26.0947L122.361 26.0972L122.539 25.63ZM118.315 22.43L117.909 22.7223L117.911 22.7251L118.315 22.43ZM118.315 7.86998L118.718 8.16515L118.72 8.16229L118.315 7.86998ZM122.539 4.66998L122.719 5.13652L122.722 5.13536L122.539 4.66998ZM135.147 4.86198L134.934 5.31456L134.941 5.31754L135.147 4.86198ZM139.147 7.96598L138.736 8.25132L138.738 8.2546L139.147 7.96598ZM140.235 12.286L140.588 12.6395V12.6395L140.235 12.286ZM131.723 11.646L131.276 11.8696L131.723 11.646ZM130.635 10.302L130.922 9.89237L130.635 10.302ZM126.251 10.558L125.942 10.1648L125.935 10.1704L126.251 10.558ZM124.887 17.694C124.887 18.6893 125.221 19.516 125.935 20.0976L126.567 19.3224C126.128 18.9653 125.887 18.448 125.887 17.694H124.887ZM125.942 20.1031C126.652 20.661 127.572 20.914 128.651 20.914V19.914C127.724 19.914 127.044 19.6976 126.56 19.3168L125.942 20.1031ZM128.651 20.914C129.584 20.914 130.369 20.762 130.922 20.3756L130.348 19.5564C130.047 19.7673 129.51 19.914 128.651 19.914V20.914ZM130.922 20.3756C131.433 20.0176 131.844 19.4968 132.17 18.8456L131.276 18.3984C131.004 18.9418 130.69 19.317 130.348 19.5564L130.922 20.3756ZM132.17 18.8456C132.395 18.3964 132.625 18.29 132.843 18.29V17.29C132.122 17.29 131.606 17.7382 131.276 18.3984L132.17 18.8456ZM132.843 18.29H139.755V17.29H132.843V18.29ZM139.755 18.29C139.797 18.29 139.819 18.2978 139.855 18.3394L140.614 17.6886C140.394 17.4315 140.097 17.29 139.755 17.29V18.29ZM139.909 18.3936C139.951 18.4293 139.959 18.452 139.959 18.494H140.959C140.959 18.152 140.817 17.8547 140.56 17.6344L139.909 18.3936ZM139.959 18.494C139.959 19.6762 139.563 20.8585 138.736 22.0487L139.557 22.6193C140.48 21.2922 140.959 19.9145 140.959 18.494H139.959ZM138.738 22.0454C137.927 23.1929 136.672 24.1784 134.936 24.9845L135.357 25.8915C137.205 25.0336 138.617 23.9497 139.555 22.6226L138.738 22.0454ZM134.939 24.9834C133.25 25.7563 131.161 26.154 128.651 26.154V27.154C131.261 27.154 133.502 26.741 135.355 25.8926L134.939 24.9834ZM128.651 26.154C126.418 26.154 124.442 25.8201 122.717 25.1627L122.361 26.0972C124.219 26.8052 126.319 27.154 128.651 27.154V26.154ZM122.724 25.1654C121.033 24.4934 119.704 23.4824 118.718 22.1348L117.911 22.7251C119.016 24.2362 120.503 25.3586 122.354 26.0946L122.724 25.1654ZM118.72 22.1377C117.748 20.7884 117.247 19.0937 117.247 17.022H116.247C116.247 19.2596 116.791 21.1702 117.909 22.7223L118.72 22.1377ZM117.247 17.022V13.246H116.247V17.022H117.247ZM117.247 13.246C117.247 11.174 117.748 9.49162 118.718 8.16514L117.911 7.57482C116.791 9.10701 116.247 11.0087 116.247 13.246H117.247ZM118.72 8.16229C119.705 6.79531 121.033 5.7865 122.719 5.13651L122.359 4.20345C120.504 4.9188 119.015 6.04333 117.909 7.57767L118.72 8.16229ZM122.722 5.13536C124.446 4.45806 126.419 4.11398 128.651 4.11398V3.11398C126.317 3.11398 124.216 3.47391 122.356 4.20461L122.722 5.13536ZM128.651 4.11398C131.159 4.11398 133.247 4.52186 134.934 5.31452L135.359 4.40945C133.505 3.53811 131.263 3.11398 128.651 3.11398V4.11398ZM134.941 5.31754C136.673 6.10134 137.926 7.08505 138.736 8.25131L139.557 7.68066C138.618 6.32959 137.204 5.24397 135.353 4.40643L134.941 5.31754ZM138.738 8.2546C139.564 9.42183 139.959 10.5923 139.959 11.774H140.959C140.959 10.353 140.479 8.98481 139.555 7.67737L138.738 8.2546ZM139.959 11.774C139.959 11.8195 139.947 11.8666 139.881 11.9324L140.588 12.6395C140.821 12.4067 140.959 12.1125 140.959 11.774H139.959ZM139.881 11.9324C139.853 11.9605 139.823 11.978 139.755 11.978V12.978C140.07 12.978 140.36 12.8674 140.588 12.6395L139.881 11.9324ZM139.755 11.978H132.843V12.978H139.755V11.978ZM132.843 11.978C132.625 11.978 132.395 11.8715 132.17 11.4224L131.276 11.8696C131.606 12.5298 132.122 12.978 132.843 12.978V11.978ZM132.17 11.4224C131.844 10.7711 131.433 10.2503 130.922 9.89237L130.348 10.7116C130.69 10.951 131.004 11.3262 131.276 11.8696L132.17 11.4224ZM130.922 9.89237C130.369 9.50593 129.584 9.35398 128.651 9.35398V10.354C129.51 10.354 130.047 10.5007 130.348 10.7116L130.922 9.89237ZM128.651 9.35398C127.572 9.35398 126.652 9.60694 125.942 10.1648L126.56 10.9511C127.044 10.5704 127.724 10.354 128.651 10.354V9.35398ZM125.935 10.1704C125.221 10.7519 124.887 11.5787 124.887 12.574H125.887C125.887 11.82 126.128 11.3027 126.567 10.9456L125.935 10.1704ZM124.887 12.574V17.694H125.887V12.574H124.887ZM168.414 20.35L168.061 20.7035L168.414 20.35ZM168.414 26.078L168.061 25.7244V25.7244L168.414 26.078ZM168.094 4.18998L167.741 4.54354V4.54354L168.094 4.18998ZM168.094 9.91798L167.741 9.56443V9.56443L168.094 9.91798ZM155.038 10.174V9.67398H154.538V10.174H155.038ZM155.038 12.19H154.538V12.69H155.038V12.19ZM166.334 12.446L165.981 12.7995V12.7995L166.334 12.446ZM166.334 17.822L165.981 17.4684L166.334 17.822ZM155.038 18.078V17.578H154.538V18.078H155.038ZM155.038 20.094H154.538V20.594H155.038V20.094ZM167.806 20.594C167.904 20.594 167.981 20.6236 168.061 20.7035L168.768 19.9964C168.506 19.735 168.178 19.594 167.806 19.594V20.594ZM168.061 20.7035C168.141 20.7834 168.17 20.8601 168.17 20.958H169.17C169.17 20.5865 169.029 20.2579 168.768 19.9964L168.061 20.7035ZM168.17 20.958V25.47H169.17V20.958H168.17ZM168.17 25.47C168.17 25.5679 168.141 25.6445 168.061 25.7244L168.768 26.4315C169.029 26.1701 169.17 25.8414 169.17 25.47H168.17ZM168.061 25.7244C167.981 25.8043 167.904 25.834 167.806 25.834V26.834C168.178 26.834 168.506 26.693 168.768 26.4315L168.061 25.7244ZM167.806 25.834H147.582V26.834H167.806V25.834ZM147.582 25.834C147.484 25.834 147.408 25.8043 147.328 25.7244L146.621 26.4315C146.882 26.693 147.211 26.834 147.582 26.834V25.834ZM147.328 25.7244C147.248 25.6445 147.218 25.5679 147.218 25.47H146.218C146.218 25.8414 146.359 26.1701 146.621 26.4315L147.328 25.7244ZM147.218 25.47V4.79798H146.218V25.47H147.218ZM147.218 4.79798C147.218 4.7001 147.248 4.62343 147.328 4.54354L146.621 3.83643C146.359 4.09787 146.218 4.42654 146.218 4.79798H147.218ZM147.328 4.54354C147.408 4.46365 147.484 4.43398 147.582 4.43398V3.43398C147.211 3.43398 146.882 3.57499 146.621 3.83643L147.328 4.54354ZM147.582 4.43398H167.486V3.43398H147.582V4.43398ZM167.486 4.43398C167.584 4.43398 167.661 4.46365 167.741 4.54354L168.448 3.83643C168.186 3.57499 167.858 3.43398 167.486 3.43398V4.43398ZM167.741 4.54354C167.821 4.62343 167.85 4.7001 167.85 4.79798H168.85C168.85 4.42654 168.709 4.09787 168.448 3.83643L167.741 4.54354ZM167.85 4.79798V9.30998H168.85V4.79798H167.85ZM167.85 9.30998C167.85 9.40787 167.821 9.48454 167.741 9.56443L168.448 10.2715C168.709 10.0101 168.85 9.68143 168.85 9.30998H167.85ZM167.741 9.56443C167.661 9.64432 167.584 9.67398 167.486 9.67398V10.674C167.858 10.674 168.186 10.533 168.448 10.2715L167.741 9.56443ZM167.486 9.67398H155.038V10.674H167.486V9.67398ZM154.538 10.174V12.19H155.538V10.174H154.538ZM155.038 12.69H165.726V11.69H155.038V12.69ZM165.726 12.69C165.824 12.69 165.901 12.7196 165.981 12.7995L166.688 12.0924C166.426 11.831 166.098 11.69 165.726 11.69V12.69ZM165.981 12.7995C166.061 12.8794 166.09 12.9561 166.09 13.054H167.09C167.09 12.6825 166.949 12.3539 166.688 12.0924L165.981 12.7995ZM166.09 13.054V17.214H167.09V13.054H166.09ZM166.09 17.214C166.09 17.3119 166.061 17.3885 165.981 17.4684L166.688 18.1755C166.949 17.9141 167.09 17.5854 167.09 17.214H166.09ZM165.981 17.4684C165.901 17.5483 165.824 17.578 165.726 17.578V18.578C166.098 18.578 166.426 18.437 166.688 18.1755L165.981 17.4684ZM165.726 17.578H155.038V18.578H165.726V17.578ZM154.538 18.078V20.094H155.538V18.078H154.538ZM155.038 20.594H167.806V19.594H155.038V20.594Z" fill="white" mask="url(#path-1-outside-1_341_162)"/>
</g>
<defs>
<filter id="filter0_d_341_162" x="0.378906" y="0.734375" width="168.293" height="31.6396" filterUnits="userSpaceOnUse" color-interpolation-filters="sRGB">
<feFlood flood-opacity="0" result="BackgroundImageFix"/>
<feColorMatrix in="SourceAlpha" type="matrix" values="0 0 0 0 0 0 0 0 0 0 0 0 0 0 0 0 0 0 127 0" result="hardAlpha"/>
<feOffset dy="3"/>
<feComposite in2="hardAlpha" operator="out"/>
<feColorMatrix type="matrix" values="0 0 0 0 0.470833 0 0 0 0 0.175968 0 0 0 0 0 0 0 0 1 0"/>
<feBlend mode="normal" in2="BackgroundImageFix" result="effect1_dropShadow_341_162"/>
<feBlend mode="normal" in="SourceGraphic" in2="effect1_dropShadow_341_162" result="shape"/>
</filter>
</defs>
</svg>
