<svg width="87" height="18" viewBox="0 0 87 18" fill="none" xmlns="http://www.w3.org/2000/svg">
<g filter="url(#filter0_d_376_201)">
<mask id="path-1-outside-1_376_201" maskUnits="userSpaceOnUse" x="-0.617188" y="0.0351562" width="88" height="16" fill="black">
<rect fill="white" x="-0.617188" y="0.0351562" width="88" height="16"/>
<path d="M7.27659 6.74608C8.47509 6.87682 9.4339 7.08929 10.153 7.38346C10.883 7.67764 11.4114 8.06443 11.7383 8.54383C12.0652 9.02323 12.2286 9.62249 12.2286 10.3416C12.2286 11.3331 11.8255 12.1611 11.0192 12.8258C10.2129 13.4904 9.13427 13.9153 7.78323 14.1005V15.1465C7.78323 15.2663 7.73965 15.3699 7.65248 15.457C7.56532 15.5442 7.46181 15.5878 7.34196 15.5878H5.15197C5.03212 15.5878 4.92861 15.5442 4.84145 15.457C4.75429 15.3699 4.7107 15.2663 4.7107 15.1465V14.1005C3.77369 13.9807 2.98377 13.7573 2.34094 13.4305C1.709 13.0927 1.23504 12.6896 0.919076 12.2211C0.603107 11.7526 0.445122 11.2514 0.445122 10.7175C0.445122 10.6085 0.477809 10.5214 0.543181 10.456C0.61945 10.3906 0.712061 10.3579 0.821016 10.3579H4.17138C4.40018 10.3579 4.58541 10.4288 4.72705 10.5704C4.91227 10.7447 5.11928 10.8646 5.34809 10.9299C5.57689 10.9844 5.89831 11.0117 6.31234 11.0117C7.34741 11.0117 7.86495 10.8537 7.86495 10.5377C7.86495 10.407 7.79413 10.298 7.65248 10.2108C7.52174 10.1128 7.28204 10.0311 6.93338 9.96569C6.59562 9.88943 6.09443 9.81316 5.42981 9.73689C3.93712 9.56256 2.7931 9.19211 1.99773 8.62555C1.20236 8.04809 0.804673 7.23638 0.804673 6.19041C0.804673 5.26429 1.15333 4.47982 1.85064 3.83698C2.54795 3.18326 3.5013 2.75833 4.7107 2.56221V1.40184C4.7107 1.28199 4.75429 1.17849 4.84145 1.09132C4.92861 1.00416 5.03212 0.960577 5.15197 0.960577H7.34196C7.46181 0.960577 7.56532 1.00416 7.65248 1.09132C7.73965 1.17849 7.78323 1.28199 7.78323 1.40184V2.56221C8.62218 2.70385 9.34673 2.95445 9.95688 3.314C10.567 3.67355 11.0301 4.07668 11.3461 4.5234C11.6729 4.97011 11.8363 5.40049 11.8363 5.81451C11.8363 5.92347 11.7982 6.01063 11.7219 6.07601C11.6566 6.14138 11.564 6.17407 11.4441 6.17407H7.93032C7.7342 6.17407 7.56532 6.10869 7.42368 5.97795C7.30383 5.86899 7.16219 5.78183 6.99876 5.71646C6.83532 5.65108 6.58473 5.6184 6.24697 5.6184C5.51697 5.6184 5.15197 5.77093 5.15197 6.07601C5.15197 6.23944 5.29361 6.37018 5.57689 6.46824C5.86018 6.55541 6.42674 6.64802 7.27659 6.74608Z"/>
<path d="M26.8004 9.27928C26.8004 10.9354 26.2556 12.172 25.166 12.9892C24.0765 13.7955 22.6219 14.1986 20.8024 14.1986C19.4949 14.1986 18.3782 13.9916 17.452 13.5775C16.5368 13.1526 15.845 12.6187 15.3764 11.9759C14.9188 11.3331 14.69 10.6848 14.69 10.0311C14.69 9.93301 14.7227 9.85129 14.7881 9.78592C14.8644 9.70965 14.9515 9.67152 15.0496 9.67152H18.7431C18.8412 9.67152 18.9229 9.7042 18.9883 9.76957C19.0646 9.83495 19.119 9.92211 19.1517 10.0311C19.3587 10.6848 19.8817 11.0117 20.7207 11.0117C21.2328 11.0117 21.6359 10.8918 21.9301 10.6521C22.2352 10.4124 22.3877 10.0692 22.3877 9.62249V5.94526H16.4224C16.3026 5.94526 16.1991 5.90168 16.1119 5.81451C16.0247 5.72735 15.9811 5.62384 15.9811 5.50399V3.03617C15.9811 2.91632 16.0247 2.81281 16.1119 2.72565C16.1991 2.63848 16.3026 2.5949 16.4224 2.5949H26.3591C26.4789 2.5949 26.5824 2.63848 26.6696 2.72565C26.7568 2.81281 26.8004 2.91632 26.8004 3.03617V9.27928ZM36.0606 14.1986C34.2301 14.1986 32.7756 13.8009 31.6969 13.0055C30.6292 12.2102 30.0953 10.9681 30.0953 9.27928V3.03617C30.0953 2.91632 30.1389 2.81281 30.2261 2.72565C30.3132 2.63848 30.4167 2.5949 30.5366 2.5949H33.9523C34.0722 2.5949 34.1757 2.63848 34.2628 2.72565C34.35 2.81281 34.3936 2.91632 34.3936 3.03617V9.54077C34.3936 9.98748 34.5407 10.3307 34.8348 10.5704C35.1399 10.8101 35.5485 10.9299 36.0606 10.9299C36.5727 10.9299 36.9758 10.8101 37.27 10.5704C37.5751 10.3307 37.7276 9.98748 37.7276 9.54077V3.03617C37.7276 2.91632 37.7712 2.81281 37.8583 2.72565C37.9455 2.63848 38.049 2.5949 38.1689 2.5949H41.5846C41.7044 2.5949 41.8079 2.63848 41.8951 2.72565C41.9823 2.81281 42.0259 2.91632 42.0259 3.03617V9.27928C42.0259 10.9681 41.4865 12.2102 40.4079 13.0055C39.3401 13.8009 37.891 14.1986 36.0606 14.1986ZM53.1492 10.6848H56.1073C56.2272 10.6848 56.3307 10.7284 56.4179 10.8155C56.505 10.9027 56.5486 11.0062 56.5486 11.1261V13.5939C56.5486 13.7137 56.505 13.8172 56.4179 13.9044C56.3307 13.9916 56.2272 14.0352 56.1073 14.0352H45.7457C45.6259 14.0352 45.5224 13.9916 45.4352 13.9044C45.348 13.8172 45.3045 13.7137 45.3045 13.5939V11.1261C45.3045 11.0062 45.348 10.9027 45.4352 10.8155C45.5224 10.7284 45.6259 10.6848 45.7457 10.6848H48.7365V5.94526H45.7457C45.6259 5.94526 45.5224 5.90168 45.4352 5.81451C45.348 5.72735 45.3045 5.62384 45.3045 5.50399V3.03617C45.3045 2.91632 45.348 2.81281 45.4352 2.72565C45.5224 2.63848 45.6259 2.5949 45.7457 2.5949H56.1073C56.2272 2.5949 56.3307 2.63848 56.4179 2.72565C56.505 2.81281 56.5486 2.91632 56.5486 3.03617V5.50399C56.5486 5.62384 56.505 5.72735 56.4179 5.81451C56.3307 5.90168 56.2272 5.94526 56.1073 5.94526H53.1492V10.6848ZM64.2889 9.62249C64.2889 10.0692 64.436 10.4124 64.7302 10.6521C65.0352 10.8918 65.4438 11.0117 65.9559 11.0117C66.4135 11.0117 66.7513 10.9354 66.9692 10.7829C67.1871 10.6303 67.3723 10.4015 67.5249 10.0964C67.6665 9.81316 67.8572 9.67152 68.0969 9.67152H71.627C71.7251 9.67152 71.8068 9.70965 71.8722 9.78592C71.9484 9.85129 71.9866 9.93301 71.9866 10.0311C71.9866 10.6957 71.7632 11.3494 71.3165 11.9923C70.8698 12.6242 70.1888 13.1526 69.2736 13.5775C68.3693 13.9916 67.2634 14.1986 65.9559 14.1986C64.7901 14.1986 63.7496 14.0243 62.8344 13.6756C61.93 13.3161 61.2109 12.7713 60.6771 12.0413C60.1432 11.3004 59.8762 10.3797 59.8762 9.27928V7.35078C59.8762 6.25033 60.1432 5.33511 60.6771 4.60512C61.2109 3.86422 61.93 3.31945 62.8344 2.97079C63.7496 2.61124 64.7901 2.43147 65.9559 2.43147C67.2634 2.43147 68.3693 2.64393 69.2736 3.06885C70.1888 3.48288 70.8698 4.01131 71.3165 4.65415C71.7632 5.28608 71.9866 5.93436 71.9866 6.59899C71.9866 6.69705 71.9484 6.78421 71.8722 6.86048C71.8068 6.92585 71.7251 6.95854 71.627 6.95854H68.0969C67.8572 6.95854 67.6665 6.8169 67.5249 6.53362C67.3723 6.22854 67.1871 5.99974 66.9692 5.8472C66.7513 5.69466 66.4135 5.6184 65.9559 5.6184C65.4438 5.6184 65.0352 5.73825 64.7302 5.97795C64.436 6.21765 64.2889 6.56086 64.2889 7.00757V9.62249ZM85.9536 10.8482C86.0735 10.8482 86.177 10.8918 86.2642 10.979C86.3513 11.0661 86.3949 11.1696 86.3949 11.2895V13.5939C86.3949 13.7137 86.3513 13.8172 86.2642 13.9044C86.177 13.9916 86.0735 14.0352 85.9536 14.0352H75.6247C75.5049 14.0352 75.4014 13.9916 75.3142 13.9044C75.227 13.8172 75.1835 13.7137 75.1835 13.5939V3.03617C75.1835 2.91632 75.227 2.81281 75.3142 2.72565C75.4014 2.63848 75.5049 2.5949 75.6247 2.5949H85.7902C85.9101 2.5949 86.0136 2.63848 86.1007 2.72565C86.1879 2.81281 86.2315 2.91632 86.2315 3.03617V5.34056C86.2315 5.46041 86.1879 5.56392 86.1007 5.65108C86.0136 5.73825 85.9101 5.78183 85.7902 5.78183H79.4327V6.81145H84.8913C85.0112 6.81145 85.1147 6.85503 85.2018 6.9422C85.289 7.02936 85.3326 7.13287 85.3326 7.25272V9.37734C85.3326 9.49719 85.289 9.60069 85.2018 9.68786C85.1147 9.77502 85.0112 9.8186 84.8913 9.8186H79.4327V10.8482H85.9536Z"/>
</mask>
<path d="M7.27659 6.74608C8.47509 6.87682 9.4339 7.08929 10.153 7.38346C10.883 7.67764 11.4114 8.06443 11.7383 8.54383C12.0652 9.02323 12.2286 9.62249 12.2286 10.3416C12.2286 11.3331 11.8255 12.1611 11.0192 12.8258C10.2129 13.4904 9.13427 13.9153 7.78323 14.1005V15.1465C7.78323 15.2663 7.73965 15.3699 7.65248 15.457C7.56532 15.5442 7.46181 15.5878 7.34196 15.5878H5.15197C5.03212 15.5878 4.92861 15.5442 4.84145 15.457C4.75429 15.3699 4.7107 15.2663 4.7107 15.1465V14.1005C3.77369 13.9807 2.98377 13.7573 2.34094 13.4305C1.709 13.0927 1.23504 12.6896 0.919076 12.2211C0.603107 11.7526 0.445122 11.2514 0.445122 10.7175C0.445122 10.6085 0.477809 10.5214 0.543181 10.456C0.61945 10.3906 0.712061 10.3579 0.821016 10.3579H4.17138C4.40018 10.3579 4.58541 10.4288 4.72705 10.5704C4.91227 10.7447 5.11928 10.8646 5.34809 10.9299C5.57689 10.9844 5.89831 11.0117 6.31234 11.0117C7.34741 11.0117 7.86495 10.8537 7.86495 10.5377C7.86495 10.407 7.79413 10.298 7.65248 10.2108C7.52174 10.1128 7.28204 10.0311 6.93338 9.96569C6.59562 9.88943 6.09443 9.81316 5.42981 9.73689C3.93712 9.56256 2.7931 9.19211 1.99773 8.62555C1.20236 8.04809 0.804673 7.23638 0.804673 6.19041C0.804673 5.26429 1.15333 4.47982 1.85064 3.83698C2.54795 3.18326 3.5013 2.75833 4.7107 2.56221V1.40184C4.7107 1.28199 4.75429 1.17849 4.84145 1.09132C4.92861 1.00416 5.03212 0.960577 5.15197 0.960577H7.34196C7.46181 0.960577 7.56532 1.00416 7.65248 1.09132C7.73965 1.17849 7.78323 1.28199 7.78323 1.40184V2.56221C8.62218 2.70385 9.34673 2.95445 9.95688 3.314C10.567 3.67355 11.0301 4.07668 11.3461 4.5234C11.6729 4.97011 11.8363 5.40049 11.8363 5.81451C11.8363 5.92347 11.7982 6.01063 11.7219 6.07601C11.6566 6.14138 11.564 6.17407 11.4441 6.17407H7.93032C7.7342 6.17407 7.56532 6.10869 7.42368 5.97795C7.30383 5.86899 7.16219 5.78183 6.99876 5.71646C6.83532 5.65108 6.58473 5.6184 6.24697 5.6184C5.51697 5.6184 5.15197 5.77093 5.15197 6.07601C5.15197 6.23944 5.29361 6.37018 5.57689 6.46824C5.86018 6.55541 6.42674 6.64802 7.27659 6.74608Z" fill="white"/>
<path d="M26.8004 9.27928C26.8004 10.9354 26.2556 12.172 25.166 12.9892C24.0765 13.7955 22.6219 14.1986 20.8024 14.1986C19.4949 14.1986 18.3782 13.9916 17.452 13.5775C16.5368 13.1526 15.845 12.6187 15.3764 11.9759C14.9188 11.3331 14.69 10.6848 14.69 10.0311C14.69 9.93301 14.7227 9.85129 14.7881 9.78592C14.8644 9.70965 14.9515 9.67152 15.0496 9.67152H18.7431C18.8412 9.67152 18.9229 9.7042 18.9883 9.76957C19.0646 9.83495 19.119 9.92211 19.1517 10.0311C19.3587 10.6848 19.8817 11.0117 20.7207 11.0117C21.2328 11.0117 21.6359 10.8918 21.9301 10.6521C22.2352 10.4124 22.3877 10.0692 22.3877 9.62249V5.94526H16.4224C16.3026 5.94526 16.1991 5.90168 16.1119 5.81451C16.0247 5.72735 15.9811 5.62384 15.9811 5.50399V3.03617C15.9811 2.91632 16.0247 2.81281 16.1119 2.72565C16.1991 2.63848 16.3026 2.5949 16.4224 2.5949H26.3591C26.4789 2.5949 26.5824 2.63848 26.6696 2.72565C26.7568 2.81281 26.8004 2.91632 26.8004 3.03617V9.27928ZM36.0606 14.1986C34.2301 14.1986 32.7756 13.8009 31.6969 13.0055C30.6292 12.2102 30.0953 10.9681 30.0953 9.27928V3.03617C30.0953 2.91632 30.1389 2.81281 30.2261 2.72565C30.3132 2.63848 30.4167 2.5949 30.5366 2.5949H33.9523C34.0722 2.5949 34.1757 2.63848 34.2628 2.72565C34.35 2.81281 34.3936 2.91632 34.3936 3.03617V9.54077C34.3936 9.98748 34.5407 10.3307 34.8348 10.5704C35.1399 10.8101 35.5485 10.9299 36.0606 10.9299C36.5727 10.9299 36.9758 10.8101 37.27 10.5704C37.5751 10.3307 37.7276 9.98748 37.7276 9.54077V3.03617C37.7276 2.91632 37.7712 2.81281 37.8583 2.72565C37.9455 2.63848 38.049 2.5949 38.1689 2.5949H41.5846C41.7044 2.5949 41.8079 2.63848 41.8951 2.72565C41.9823 2.81281 42.0259 2.91632 42.0259 3.03617V9.27928C42.0259 10.9681 41.4865 12.2102 40.4079 13.0055C39.3401 13.8009 37.891 14.1986 36.0606 14.1986ZM53.1492 10.6848H56.1073C56.2272 10.6848 56.3307 10.7284 56.4179 10.8155C56.505 10.9027 56.5486 11.0062 56.5486 11.1261V13.5939C56.5486 13.7137 56.505 13.8172 56.4179 13.9044C56.3307 13.9916 56.2272 14.0352 56.1073 14.0352H45.7457C45.6259 14.0352 45.5224 13.9916 45.4352 13.9044C45.348 13.8172 45.3045 13.7137 45.3045 13.5939V11.1261C45.3045 11.0062 45.348 10.9027 45.4352 10.8155C45.5224 10.7284 45.6259 10.6848 45.7457 10.6848H48.7365V5.94526H45.7457C45.6259 5.94526 45.5224 5.90168 45.4352 5.81451C45.348 5.72735 45.3045 5.62384 45.3045 5.50399V3.03617C45.3045 2.91632 45.348 2.81281 45.4352 2.72565C45.5224 2.63848 45.6259 2.5949 45.7457 2.5949H56.1073C56.2272 2.5949 56.3307 2.63848 56.4179 2.72565C56.505 2.81281 56.5486 2.91632 56.5486 3.03617V5.50399C56.5486 5.62384 56.505 5.72735 56.4179 5.81451C56.3307 5.90168 56.2272 5.94526 56.1073 5.94526H53.1492V10.6848ZM64.2889 9.62249C64.2889 10.0692 64.436 10.4124 64.7302 10.6521C65.0352 10.8918 65.4438 11.0117 65.9559 11.0117C66.4135 11.0117 66.7513 10.9354 66.9692 10.7829C67.1871 10.6303 67.3723 10.4015 67.5249 10.0964C67.6665 9.81316 67.8572 9.67152 68.0969 9.67152H71.627C71.7251 9.67152 71.8068 9.70965 71.8722 9.78592C71.9484 9.85129 71.9866 9.93301 71.9866 10.0311C71.9866 10.6957 71.7632 11.3494 71.3165 11.9923C70.8698 12.6242 70.1888 13.1526 69.2736 13.5775C68.3693 13.9916 67.2634 14.1986 65.9559 14.1986C64.7901 14.1986 63.7496 14.0243 62.8344 13.6756C61.93 13.3161 61.2109 12.7713 60.6771 12.0413C60.1432 11.3004 59.8762 10.3797 59.8762 9.27928V7.35078C59.8762 6.25033 60.1432 5.33511 60.6771 4.60512C61.2109 3.86422 61.93 3.31945 62.8344 2.97079C63.7496 2.61124 64.7901 2.43147 65.9559 2.43147C67.2634 2.43147 68.3693 2.64393 69.2736 3.06885C70.1888 3.48288 70.8698 4.01131 71.3165 4.65415C71.7632 5.28608 71.9866 5.93436 71.9866 6.59899C71.9866 6.69705 71.9484 6.78421 71.8722 6.86048C71.8068 6.92585 71.7251 6.95854 71.627 6.95854H68.0969C67.8572 6.95854 67.6665 6.8169 67.5249 6.53362C67.3723 6.22854 67.1871 5.99974 66.9692 5.8472C66.7513 5.69466 66.4135 5.6184 65.9559 5.6184C65.4438 5.6184 65.0352 5.73825 64.7302 5.97795C64.436 6.21765 64.2889 6.56086 64.2889 7.00757V9.62249ZM85.9536 10.8482C86.0735 10.8482 86.177 10.8918 86.2642 10.979C86.3513 11.0661 86.3949 11.1696 86.3949 11.2895V13.5939C86.3949 13.7137 86.3513 13.8172 86.2642 13.9044C86.177 13.9916 86.0735 14.0352 85.9536 14.0352H75.6247C75.5049 14.0352 75.4014 13.9916 75.3142 13.9044C75.227 13.8172 75.1835 13.7137 75.1835 13.5939V3.03617C75.1835 2.91632 75.227 2.81281 75.3142 2.72565C75.4014 2.63848 75.5049 2.5949 75.6247 2.5949H85.7902C85.9101 2.5949 86.0136 2.63848 86.1007 2.72565C86.1879 2.81281 86.2315 2.91632 86.2315 3.03617V5.34056C86.2315 5.46041 86.1879 5.56392 86.1007 5.65108C86.0136 5.73825 85.9101 5.78183 85.7902 5.78183H79.4327V6.81145H84.8913C85.0112 6.81145 85.1147 6.85503 85.2018 6.9422C85.289 7.02936 85.3326 7.13287 85.3326 7.25272V9.37734C85.3326 9.49719 85.289 9.60069 85.2018 9.68786C85.1147 9.77502 85.0112 9.8186 84.8913 9.8186H79.4327V10.8482H85.9536Z" fill="#0AC416"/>
<path d="M7.27659 6.74608L7.24732 6.99976L7.2489 6.99994L7.27659 6.74608ZM10.153 7.38346L10.0563 7.61982L10.0575 7.62032L10.153 7.38346ZM11.7383 8.54383L11.9493 8.39998L11.9493 8.39998L11.7383 8.54383ZM11.0192 12.8258L11.1816 13.0228L11.1816 13.0228L11.0192 12.8258ZM7.78323 14.1005L7.74854 13.8475L7.52787 13.8778V14.1005H7.78323ZM7.65248 15.457L7.83305 15.6376L7.83305 15.6376L7.65248 15.457ZM4.84145 15.457L5.02202 15.2764L5.02202 15.2764L4.84145 15.457ZM4.7107 14.1005H4.96607V13.8757L4.7431 13.8472L4.7107 14.1005ZM2.34094 13.4305L2.22054 13.6557L2.22519 13.6581L2.34094 13.4305ZM0.543181 10.456L0.376993 10.2621L0.369547 10.2685L0.362613 10.2754L0.543181 10.456ZM4.72705 10.5704L4.5464 10.751L4.55203 10.7563L4.72705 10.5704ZM5.34809 10.9299L5.27787 11.1757L5.28894 11.1784L5.34809 10.9299ZM7.65248 10.2108L7.49927 10.4151L7.50865 10.4222L7.51865 10.4283L7.65248 10.2108ZM6.93338 9.96569L6.8771 10.215L6.88632 10.2167L6.93338 9.96569ZM5.42981 9.73689L5.40018 9.99053L5.40069 9.99059L5.42981 9.73689ZM1.99773 8.62555L1.84769 8.8322L1.84957 8.83354L1.99773 8.62555ZM1.85064 3.83698L2.02373 4.02475L2.02529 4.02328L1.85064 3.83698ZM4.7107 2.56221L4.75158 2.81428L4.96607 2.7795V2.56221H4.7107ZM4.84145 1.09132L4.66088 0.910753L4.66088 0.910753L4.84145 1.09132ZM7.65248 1.09132L7.83305 0.910754L7.83305 0.910753L7.65248 1.09132ZM7.78323 2.56221H7.52787V2.77808L7.74072 2.81401L7.78323 2.56221ZM11.3461 4.5234L11.1375 4.67088L11.14 4.67419L11.3461 4.5234ZM11.7219 6.07601L11.5558 5.88212L11.5483 5.8885L11.5414 5.89544L11.7219 6.07601ZM7.42368 5.97795L7.59689 5.7903L7.59545 5.78899L7.42368 5.97795ZM6.99876 5.71646L6.90391 5.95355L6.90392 5.95355L6.99876 5.71646ZM5.57689 6.46824L5.49331 6.7097L5.5018 6.71231L5.57689 6.46824ZM7.2489 6.99994C8.43522 7.12935 9.36791 7.3382 10.0563 7.61981L10.2497 7.14711C9.49988 6.84038 8.51497 6.6243 7.30428 6.49222L7.2489 6.99994ZM10.0575 7.62032C10.757 7.90217 11.2374 8.2625 11.5273 8.68769L11.9493 8.39998C11.5855 7.86637 11.009 7.45311 10.2484 7.14661L10.0575 7.62032ZM11.5273 8.68769C11.819 9.1155 11.9732 9.66144 11.9732 10.3416H12.4839C12.4839 9.58353 12.3113 8.93096 11.9493 8.39998L11.5273 8.68769ZM11.9732 10.3416C11.9732 11.2522 11.6078 12.0096 10.8568 12.6287L11.1816 13.0228C12.0431 12.3127 12.4839 11.4139 12.4839 10.3416H11.9732ZM10.8568 12.6287C10.0966 13.2553 9.06667 13.6668 7.74854 13.8475L7.81791 14.3535C9.20187 14.1638 10.3292 13.7255 11.1816 13.0228L10.8568 12.6287ZM7.52787 14.1005V15.1465H8.03859V14.1005H7.52787ZM7.52787 15.1465C7.52787 15.1965 7.51272 15.2356 7.47191 15.2764L7.83305 15.6376C7.96658 15.5041 8.03859 15.3362 8.03859 15.1465H7.52787ZM7.47192 15.2764C7.43111 15.3173 7.39196 15.3324 7.34196 15.3324V15.8431C7.53167 15.8431 7.69953 15.7711 7.83305 15.6376L7.47192 15.2764ZM7.34196 15.3324H5.15197V15.8431H7.34196V15.3324ZM5.15197 15.3324C5.10198 15.3324 5.06282 15.3173 5.02202 15.2764L4.66088 15.6376C4.79441 15.7711 4.96226 15.8431 5.15197 15.8431V15.3324ZM5.02202 15.2764C4.98122 15.2356 4.96607 15.1965 4.96607 15.1465H4.45534C4.45534 15.3362 4.52736 15.5041 4.66088 15.6376L5.02202 15.2764ZM4.96607 15.1465V14.1005H4.45534V15.1465H4.96607ZM4.7431 13.8472C3.82664 13.73 3.06673 13.513 2.45668 13.2028L2.22519 13.6581C2.90081 14.0016 3.72075 14.2314 4.6783 14.3538L4.7431 13.8472ZM2.46131 13.2052C1.85647 12.882 1.41807 12.5042 1.13079 12.0783L0.707361 12.3638C1.05202 12.8749 1.56152 13.3034 2.22056 13.6557L2.46131 13.2052ZM1.13079 12.0783C0.841517 11.6494 0.700485 11.1974 0.700485 10.7175H0.189759C0.189759 11.3053 0.364696 11.8558 0.707361 12.3638L1.13079 12.0783ZM0.700485 10.7175C0.700485 10.6632 0.714745 10.6456 0.72375 10.6366L0.362613 10.2754C0.240872 10.3972 0.189759 10.5538 0.189759 10.7175H0.700485ZM0.709369 10.6499C0.735299 10.6277 0.767456 10.6133 0.821016 10.6133V10.1026C0.656667 10.1026 0.503601 10.1536 0.376993 10.2621L0.709369 10.6499ZM0.821016 10.6133H4.17138V10.1026H0.821016V10.6133ZM4.17138 10.6133C4.34292 10.6133 4.45965 10.6641 4.54648 10.751L4.90762 10.3898C4.71116 10.1934 4.45744 10.1026 4.17138 10.1026V10.6133ZM4.55203 10.7563C4.76485 10.9566 5.00724 11.0981 5.27794 11.1755L5.41824 10.6844C5.23133 10.631 5.05969 10.5328 4.90206 10.3844L4.55203 10.7563ZM5.28894 11.1784C5.54642 11.2397 5.891 11.267 6.31234 11.267V10.7563C5.90562 10.7563 5.60737 10.7292 5.40724 10.6815L5.28894 11.1784ZM6.31234 11.267C6.83654 11.267 7.25545 11.2277 7.55135 11.1374C7.83013 11.0523 8.12031 10.8783 8.12031 10.5377H7.60958C7.60958 10.5389 7.60953 10.5396 7.60948 10.54C7.60946 10.5402 7.60944 10.5404 7.60942 10.5405C7.60941 10.5406 7.6094 10.5406 7.6094 10.5406C7.6094 10.5406 7.6094 10.5406 7.60941 10.5406C7.60942 10.5405 7.60944 10.5405 7.60945 10.5404C7.60948 10.5404 7.60947 10.5404 7.6094 10.5406C7.60936 10.5406 7.60678 10.5464 7.59544 10.5567C7.5699 10.5801 7.51304 10.6151 7.40224 10.6489C7.18061 10.7166 6.82321 10.7563 6.31234 10.7563V11.267ZM8.12031 10.5377C8.12031 10.2938 7.97998 10.1125 7.78632 9.99336L7.51865 10.4283C7.60827 10.4835 7.60958 10.5201 7.60958 10.5377H8.12031ZM7.8057 10.0066C7.62405 9.87031 7.3327 9.78075 6.98044 9.7147L6.88632 10.2167C7.23138 10.2814 7.41942 10.3553 7.49927 10.4151L7.8057 10.0066ZM6.98963 9.7166C6.63812 9.63723 6.12593 9.55973 5.45892 9.48319L5.40069 9.99059C6.06293 10.0666 6.55313 10.1416 6.87714 10.2148L6.98963 9.7166ZM5.45943 9.48325C3.98845 9.31146 2.89229 8.94924 2.14589 8.41756L1.84957 8.83354C2.69391 9.43498 3.88579 9.81366 5.40018 9.99053L5.45943 9.48325ZM2.14776 8.41891C1.42338 7.89299 1.06004 7.16075 1.06004 6.19041H0.54931C0.54931 7.312 0.981333 8.20319 1.8477 8.83219L2.14776 8.41891ZM1.06004 6.19041C1.06004 5.33755 1.37743 4.62055 2.02373 4.02474L1.67755 3.64923C0.929231 4.33909 0.54931 5.19104 0.54931 6.19041H1.06004ZM2.02529 4.02328C2.67637 3.4129 3.57827 3.00455 4.75158 2.81428L4.66983 2.31014C3.42434 2.51211 2.41953 2.95361 1.67599 3.65069L2.02529 4.02328ZM4.96607 2.56221V1.40184H4.45534V2.56221H4.96607ZM4.96607 1.40184C4.96607 1.35185 4.98122 1.31269 5.02202 1.27189L4.66088 0.910753C4.52736 1.04428 4.45534 1.21214 4.45534 1.40184H4.96607ZM5.02202 1.27189C5.06282 1.23109 5.10198 1.21594 5.15197 1.21594V0.705214C4.96226 0.705214 4.79441 0.777228 4.66088 0.910753L5.02202 1.27189ZM5.15197 1.21594H7.34196V0.705214H5.15197V1.21594ZM7.34196 1.21594C7.39196 1.21594 7.43111 1.23109 7.47192 1.27189L7.83305 0.910753C7.69953 0.777228 7.53167 0.705214 7.34196 0.705214V1.21594ZM7.47191 1.27189C7.51272 1.31269 7.52787 1.35185 7.52787 1.40184H8.03859C8.03859 1.21214 7.96658 1.04428 7.83305 0.910754L7.47191 1.27189ZM7.52787 1.40184V2.56221H8.03859V1.40184H7.52787ZM7.74072 2.81401C8.55496 2.95148 9.24875 3.19312 9.82723 3.53401L10.0865 3.094C9.44471 2.71578 8.6894 2.45623 7.82574 2.31041L7.74072 2.81401ZM9.82723 3.53401C10.4151 3.8804 10.8476 4.26095 11.1376 4.67086L11.5545 4.37594C11.2125 3.89242 10.719 3.46671 10.0865 3.094L9.82723 3.53401ZM11.14 4.67419C11.4455 5.09174 11.581 5.47035 11.581 5.81451H12.0917C12.0917 5.33062 11.9003 4.84849 11.5521 4.37261L11.14 4.67419ZM11.581 5.81451C11.581 5.85606 11.5702 5.86972 11.5558 5.88212L11.8881 6.26989C12.0262 6.15154 12.0917 5.99088 12.0917 5.81451H11.581ZM11.5414 5.89544C11.5369 5.89991 11.5172 5.9187 11.4441 5.9187V6.42943C11.6107 6.42943 11.7762 6.38285 11.9025 6.25658L11.5414 5.89544ZM11.4441 5.9187H7.93032V6.42943H11.4441V5.9187ZM7.93032 5.9187C7.79716 5.9187 7.69045 5.87667 7.59689 5.79031L7.25047 6.16559C7.44019 6.34071 7.67124 6.42943 7.93032 6.42943V5.9187ZM7.59545 5.78899C7.45116 5.65781 7.28288 5.55507 7.09359 5.47936L6.90392 5.95355C7.0415 6.00859 7.1565 6.08017 7.2519 6.1669L7.59545 5.78899ZM7.0936 5.47936C6.88358 5.39535 6.59293 5.36303 6.24697 5.36303V5.87376C6.57652 5.87376 6.78706 5.90681 6.90391 5.95355L7.0936 5.47936ZM6.24697 5.36303C5.87188 5.36303 5.55717 5.4011 5.32725 5.49718C5.20974 5.54629 5.10093 5.61607 5.02077 5.71657C4.93745 5.82103 4.89661 5.94453 4.89661 6.07601H5.40733C5.40733 6.05495 5.41211 6.04498 5.42004 6.03504C5.43114 6.02113 5.4592 5.99557 5.52419 5.96841C5.65927 5.91196 5.89205 5.87376 6.24697 5.87376V5.36303ZM4.89661 6.07601C4.89661 6.42153 5.20005 6.60803 5.49336 6.70956L5.66043 6.22693C5.53552 6.18369 5.46602 6.14095 5.43141 6.109C5.41544 6.09425 5.41009 6.08474 5.40861 6.08167C5.40756 6.0795 5.40733 6.07855 5.40733 6.07601H4.89661ZM5.5018 6.71231C5.81108 6.80748 6.40078 6.90208 7.24732 6.99976L7.30586 6.4924C6.45271 6.39396 5.90928 6.30334 5.65199 6.22417L5.5018 6.71231ZM25.166 12.9892L25.3179 13.1945L25.3193 13.1935L25.166 12.9892ZM17.452 13.5775L17.3445 13.8092L17.3478 13.8107L17.452 13.5775ZM15.3764 11.9759L15.1684 12.124L15.1701 12.1263L15.3764 11.9759ZM14.7881 9.78592L14.6075 9.60535L14.6075 9.60535L14.7881 9.78592ZM18.9883 9.76957L18.8077 9.95014L18.8147 9.95708L18.8221 9.96346L18.9883 9.76957ZM19.1517 10.0311L18.9071 10.1045L18.9083 10.1082L19.1517 10.0311ZM21.9301 10.6521L21.7723 10.4513L21.7688 10.4541L21.9301 10.6521ZM22.3877 5.94526H22.6431V5.6899H22.3877V5.94526ZM16.1119 5.81451L15.9313 5.99508L15.9313 5.99508L16.1119 5.81451ZM26.6696 2.72565L26.8502 2.54508L26.8502 2.54508L26.6696 2.72565ZM26.545 9.27928C26.545 10.8744 26.024 12.0265 25.0128 12.7849L25.3193 13.1935C26.4872 12.3175 27.0557 10.9963 27.0557 9.27928H26.545ZM25.0141 12.7839C23.9814 13.5481 22.5858 13.9432 20.8024 13.9432V14.454C22.6581 14.454 24.1716 14.0428 25.3179 13.1945L25.0141 12.7839ZM20.8024 13.9432C19.5209 13.9432 18.4416 13.7402 17.5563 13.3444L17.3478 13.8107C18.3147 14.2429 19.469 14.454 20.8024 14.454V13.9432ZM17.5596 13.3459C16.6733 12.9345 16.0198 12.4251 15.5828 11.8255L15.1701 12.1263C15.6701 12.8124 16.4003 13.3708 17.3445 13.8092L17.5596 13.3459ZM15.5845 11.8278C15.1512 11.2191 14.9454 10.6215 14.9454 10.0311H14.4347C14.4347 10.7481 14.6865 11.4471 15.1684 12.124L15.5845 11.8278ZM14.9454 10.0311C14.9454 9.99617 14.9543 9.98084 14.9687 9.96649L14.6075 9.60535C14.4911 9.72174 14.4347 9.86984 14.4347 10.0311H14.9454ZM14.9687 9.96649C15.0023 9.93285 15.0263 9.92688 15.0496 9.92688V9.41615C14.8767 9.41615 14.7264 9.48645 14.6075 9.60535L14.9687 9.96649ZM15.0496 9.92688H18.7431V9.41615H15.0496V9.92688ZM18.7431 9.92688C18.778 9.92688 18.7934 9.93579 18.8077 9.95014L19.1689 9.58901C19.0525 9.47261 18.9044 9.41615 18.7431 9.41615V9.92688ZM18.8221 9.96346C18.8565 9.99293 18.8866 10.036 18.9071 10.1044L19.3963 9.95769C19.3515 9.80827 19.2726 9.67697 19.1545 9.57569L18.8221 9.96346ZM18.9083 10.1082C19.0279 10.486 19.2451 10.7838 19.5639 10.9831C19.8781 11.1794 20.27 11.267 20.7207 11.267V10.7563C20.3324 10.7563 20.0433 10.6804 19.8346 10.55C19.6304 10.4223 19.4826 10.2299 19.3952 9.95397L18.9083 10.1082ZM20.7207 11.267C21.271 11.267 21.7379 11.1381 22.0914 10.8501L21.7688 10.4541C21.5339 10.6455 21.1945 10.7563 20.7207 10.7563V11.267ZM22.0878 10.8529C22.4644 10.5571 22.6431 10.1342 22.6431 9.62249H22.1323C22.1323 10.0042 22.0059 10.2677 21.7723 10.4513L22.0878 10.8529ZM22.6431 9.62249V5.94526H22.1323V9.62249H22.6431ZM22.3877 5.6899H16.4224V6.20062H22.3877V5.6899ZM16.4224 5.6899C16.3724 5.6899 16.3333 5.67475 16.2925 5.63395L15.9313 5.99508C16.0648 6.12861 16.2327 6.20062 16.4224 6.20062V5.6899ZM16.2925 5.63395C16.2517 5.59314 16.2365 5.55399 16.2365 5.50399H15.7258C15.7258 5.6937 15.7978 5.86156 15.9313 5.99508L16.2925 5.63395ZM16.2365 5.50399V3.03617H15.7258V5.50399H16.2365ZM16.2365 3.03617C16.2365 2.98617 16.2517 2.94702 16.2925 2.90621L15.9313 2.54508C15.7978 2.6786 15.7258 2.84646 15.7258 3.03617H16.2365ZM16.2925 2.90621C16.3333 2.86541 16.3724 2.85026 16.4224 2.85026V2.33954C16.2327 2.33954 16.0648 2.41155 15.9313 2.54508L16.2925 2.90621ZM16.4224 2.85026H26.3591V2.33954H16.4224V2.85026ZM26.3591 2.85026C26.4091 2.85026 26.4482 2.86541 26.489 2.90621L26.8502 2.54508C26.7167 2.41155 26.5488 2.33954 26.3591 2.33954V2.85026ZM26.489 2.90621C26.5298 2.94702 26.545 2.98617 26.545 3.03617H27.0557C27.0557 2.84646 26.9837 2.6786 26.8502 2.54508L26.489 2.90621ZM26.545 3.03617V9.27928H27.0557V3.03617H26.545ZM31.6969 13.0055L31.5444 13.2103L31.5454 13.2111L31.6969 13.0055ZM34.2628 2.72565L34.4434 2.54508L34.4434 2.54508L34.2628 2.72565ZM34.8348 10.5704L34.6735 10.7684L34.6771 10.7712L34.8348 10.5704ZM37.27 10.5704L37.1122 10.3696L37.1087 10.3724L37.27 10.5704ZM41.8951 2.72565L42.0757 2.54508L42.0757 2.54508L41.8951 2.72565ZM40.4079 13.0055L40.2563 12.8L40.2553 12.8007L40.4079 13.0055ZM36.0606 13.9432C34.2651 13.9432 32.8697 13.553 31.8485 12.8L31.5454 13.2111C32.6815 14.0488 34.1952 14.454 36.0606 14.454V13.9432ZM31.8495 12.8007C30.8635 12.0663 30.3507 10.9113 30.3507 9.27928H29.8399C29.8399 11.0248 30.3949 12.3541 31.5444 13.2103L31.8495 12.8007ZM30.3507 9.27928V3.03617H29.8399V9.27928H30.3507ZM30.3507 3.03617C30.3507 2.98617 30.3658 2.94702 30.4066 2.90621L30.0455 2.54508C29.912 2.6786 29.8399 2.84646 29.8399 3.03617H30.3507ZM30.4066 2.90621C30.4474 2.86541 30.4866 2.85026 30.5366 2.85026V2.33954C30.3469 2.33954 30.179 2.41155 30.0455 2.54508L30.4066 2.90621ZM30.5366 2.85026H33.9523V2.33954H30.5366V2.85026ZM33.9523 2.85026C34.0023 2.85026 34.0415 2.86541 34.0823 2.90621L34.4434 2.54508C34.3099 2.41155 34.142 2.33954 33.9523 2.33954V2.85026ZM34.0823 2.90621C34.1231 2.94702 34.1382 2.98617 34.1382 3.03617H34.6489C34.6489 2.84646 34.5769 2.6786 34.4434 2.54508L34.0823 2.90621ZM34.1382 3.03617V9.54077H34.6489V3.03617H34.1382ZM34.1382 9.54077C34.1382 10.0491 34.309 10.4713 34.6735 10.7684L34.9961 10.3724C34.7723 10.19 34.6489 9.92587 34.6489 9.54077H34.1382ZM34.6771 10.7712C35.0397 11.0561 35.5096 11.1853 36.0606 11.1853V10.6746C35.5874 10.6746 35.2401 10.5641 34.9926 10.3696L34.6771 10.7712ZM36.0606 11.1853C36.6109 11.1853 37.0778 11.0564 37.4313 10.7684L37.1087 10.3724C36.8738 10.5638 36.5344 10.6746 36.0606 10.6746V11.1853ZM37.4277 10.7712C37.8043 10.4754 37.983 10.0524 37.983 9.54077H37.4722C37.4722 9.92252 37.3459 10.186 37.1122 10.3696L37.4277 10.7712ZM37.983 9.54077V3.03617H37.4722V9.54077H37.983ZM37.983 3.03617C37.983 2.98617 37.9981 2.94702 38.0389 2.90621L37.6778 2.54508C37.5442 2.6786 37.4722 2.84646 37.4722 3.03617H37.983ZM38.0389 2.90621C38.0797 2.86541 38.1189 2.85026 38.1689 2.85026V2.33954C37.9792 2.33954 37.8113 2.41155 37.6778 2.54508L38.0389 2.90621ZM38.1689 2.85026H41.5846V2.33954H38.1689V2.85026ZM41.5846 2.85026C41.6346 2.85026 41.6737 2.86541 41.7145 2.90621L42.0757 2.54508C41.9422 2.41155 41.7743 2.33954 41.5846 2.33954V2.85026ZM41.7145 2.90621C41.7553 2.94702 41.7705 2.98617 41.7705 3.03617H42.2812C42.2812 2.84646 42.2092 2.6786 42.0757 2.54508L41.7145 2.90621ZM41.7705 3.03617V9.27928H42.2812V3.03617H41.7705ZM41.7705 9.27928C41.7705 10.9104 41.2529 12.0652 40.2563 12.8L40.5594 13.2111C41.7202 12.3552 42.2812 11.0258 42.2812 9.27928H41.7705ZM40.2553 12.8007C39.2455 13.553 37.8563 13.9432 36.0606 13.9432V14.454C37.9258 14.454 39.4347 14.0488 40.5604 13.2103L40.2553 12.8007ZM53.1492 10.6848H52.8938V10.9402H53.1492V10.6848ZM48.7365 10.6848V10.9402H48.9919V10.6848H48.7365ZM48.7365 5.94526H48.9919V5.6899H48.7365V5.94526ZM45.4352 5.81451L45.2546 5.99508L45.2546 5.99508L45.4352 5.81451ZM56.4179 5.81451L56.5984 5.99508L56.5984 5.99508L56.4179 5.81451ZM53.1492 5.94526V5.6899H52.8938V5.94526H53.1492ZM53.1492 10.9402H56.1073V10.4294H53.1492V10.9402ZM56.1073 10.9402C56.1573 10.9402 56.1965 10.9553 56.2373 10.9961L56.5984 10.635C56.4649 10.5014 56.297 10.4294 56.1073 10.4294V10.9402ZM56.2373 10.9961C56.2781 11.0369 56.2932 11.0761 56.2932 11.1261H56.804C56.804 10.9364 56.7319 10.7685 56.5984 10.635L56.2373 10.9961ZM56.2932 11.1261V13.5939H56.804V11.1261H56.2932ZM56.2932 13.5939C56.2932 13.6439 56.2781 13.683 56.2373 13.7238L56.5984 14.085C56.7319 13.9515 56.804 13.7836 56.804 13.5939H56.2932ZM56.2373 13.7238C56.1965 13.7646 56.1573 13.7798 56.1073 13.7798V14.2905C56.297 14.2905 56.4649 14.2185 56.5984 14.085L56.2373 13.7238ZM56.1073 13.7798H45.7457V14.2905H56.1073V13.7798ZM45.7457 13.7798C45.6957 13.7798 45.6566 13.7646 45.6158 13.7238L45.2546 14.085C45.3882 14.2185 45.556 14.2905 45.7457 14.2905V13.7798ZM45.6158 13.7238C45.575 13.683 45.5598 13.6439 45.5598 13.5939H45.0491C45.0491 13.7836 45.1211 13.9515 45.2546 14.085L45.6158 13.7238ZM45.5598 13.5939V11.1261H45.0491V13.5939H45.5598ZM45.5598 11.1261C45.5598 11.0761 45.575 11.0369 45.6158 10.9961L45.2546 10.635C45.1211 10.7685 45.0491 10.9364 45.0491 11.1261H45.5598ZM45.6158 10.9961C45.6566 10.9553 45.6957 10.9402 45.7457 10.9402V10.4294C45.556 10.4294 45.3882 10.5014 45.2546 10.635L45.6158 10.9961ZM45.7457 10.9402H48.7365V10.4294H45.7457V10.9402ZM48.9919 10.6848V5.94526H48.4812V10.6848H48.9919ZM48.7365 5.6899H45.7457V6.20062H48.7365V5.6899ZM45.7457 5.6899C45.6957 5.6899 45.6566 5.67475 45.6158 5.63395L45.2546 5.99508C45.3882 6.12861 45.556 6.20062 45.7457 6.20062V5.6899ZM45.6158 5.63395C45.575 5.59314 45.5598 5.55399 45.5598 5.50399H45.0491C45.0491 5.6937 45.1211 5.86156 45.2546 5.99508L45.6158 5.63395ZM45.5598 5.50399V3.03617H45.0491V5.50399H45.5598ZM45.5598 3.03617C45.5598 2.98617 45.575 2.94702 45.6158 2.90621L45.2546 2.54508C45.1211 2.6786 45.0491 2.84646 45.0491 3.03617H45.5598ZM45.6158 2.90621C45.6566 2.86541 45.6957 2.85026 45.7457 2.85026V2.33954C45.556 2.33954 45.3882 2.41155 45.2546 2.54508L45.6158 2.90621ZM45.7457 2.85026H56.1073V2.33954H45.7457V2.85026ZM56.1073 2.85026C56.1573 2.85026 56.1965 2.86541 56.2373 2.90621L56.5984 2.54508C56.4649 2.41155 56.297 2.33954 56.1073 2.33954V2.85026ZM56.2373 2.90621C56.2781 2.94702 56.2932 2.98617 56.2932 3.03617H56.804C56.804 2.84646 56.7319 2.6786 56.5984 2.54508L56.2373 2.90621ZM56.2932 3.03617V5.50399H56.804V3.03617H56.2932ZM56.2932 5.50399C56.2932 5.55399 56.2781 5.59314 56.2373 5.63395L56.5984 5.99508C56.7319 5.86156 56.804 5.6937 56.804 5.50399H56.2932ZM56.2373 5.63395C56.1965 5.67475 56.1573 5.6899 56.1073 5.6899V6.20062C56.297 6.20062 56.4649 6.12861 56.5984 5.99508L56.2373 5.63395ZM56.1073 5.6899H53.1492V6.20062H56.1073V5.6899ZM52.8938 5.94526V10.6848H53.4046V5.94526H52.8938ZM64.7302 10.6521L64.5688 10.8501L64.5724 10.8529L64.7302 10.6521ZM66.9692 10.7829L66.8228 10.5737L66.8228 10.5737L66.9692 10.7829ZM67.5249 10.0964L67.2965 9.98224L67.2965 9.98224L67.5249 10.0964ZM71.8722 9.78592L71.6783 9.95211L71.6911 9.96702L71.706 9.9798L71.8722 9.78592ZM71.3165 11.9923L71.525 12.1397L71.5262 12.138L71.3165 11.9923ZM69.2736 13.5775L69.3799 13.8097L69.3811 13.8092L69.2736 13.5775ZM62.8344 13.6756L62.74 13.9129L62.7434 13.9142L62.8344 13.6756ZM60.6771 12.0413L60.4699 12.1906L60.4709 12.192L60.6771 12.0413ZM60.6771 4.60512L60.8832 4.75587L60.8842 4.75441L60.6771 4.60512ZM62.8344 2.97079L62.9262 3.20907L62.9277 3.20847L62.8344 2.97079ZM69.2736 3.06885L69.165 3.3L69.1683 3.30152L69.2736 3.06885ZM71.3165 4.65415L71.1068 4.79987L71.108 4.80155L71.3165 4.65415ZM71.8722 6.86048L72.0527 7.04105L72.0527 7.04105L71.8722 6.86048ZM67.5249 6.53362L67.2965 6.64782L67.2965 6.64782L67.5249 6.53362ZM66.9692 5.8472L67.1156 5.638L67.1156 5.638L66.9692 5.8472ZM64.7302 5.97795L64.5724 5.77712L64.5689 5.77998L64.7302 5.97795ZM64.0335 9.62249C64.0335 10.1308 64.2043 10.5531 64.5689 10.8501L64.8915 10.4541C64.6676 10.2718 64.5443 10.0076 64.5443 9.62249H64.0335ZM64.5724 10.8529C64.935 11.1378 65.405 11.267 65.9559 11.267V10.7563C65.4827 10.7563 65.1355 10.6458 64.8879 10.4513L64.5724 10.8529ZM65.9559 11.267C66.4323 11.267 66.8337 11.1894 67.1156 10.9921L66.8228 10.5737C66.6689 10.6814 66.3948 10.7563 65.9559 10.7563V11.267ZM67.1156 10.9921C67.3768 10.8092 67.587 10.5433 67.7533 10.2106L67.2965 9.98224C67.1577 10.2598 66.9974 10.4514 66.8228 10.5737L67.1156 10.9921ZM67.7533 10.2106C67.868 9.98125 67.9857 9.92688 68.0969 9.92688V9.41615C67.7287 9.41615 67.465 9.64506 67.2965 9.98224L67.7533 10.2106ZM68.0969 9.92688H71.627V9.41615H68.0969V9.92688ZM71.627 9.92688C71.6485 9.92688 71.6601 9.93085 71.6783 9.95211L72.066 9.61973C71.9535 9.48845 71.8017 9.41615 71.627 9.41615V9.92688ZM71.706 9.9798C71.7272 9.99802 71.7312 10.0096 71.7312 10.0311H72.2419C72.2419 9.8564 72.1696 9.70456 72.0383 9.59203L71.706 9.9798ZM71.7312 10.0311C71.7312 10.6348 71.5292 11.2387 71.1068 11.8465L71.5262 12.138C71.9972 11.4602 72.2419 10.7565 72.2419 10.0311H71.7312ZM71.108 11.8448C70.6937 12.4309 70.0528 12.9342 69.1661 13.3459L69.3811 13.8092C70.3248 13.371 71.0459 12.8174 71.525 12.1397L71.108 11.8448ZM69.1673 13.3454C68.3051 13.7401 67.2377 13.9432 65.9559 13.9432V14.454C67.289 14.454 68.4335 14.243 69.3799 13.8097L69.1673 13.3454ZM65.9559 13.9432C64.8154 13.9432 63.8065 13.7727 62.9253 13.437L62.7434 13.9142C63.6927 14.2758 64.7648 14.454 65.9559 14.454V13.9432ZM62.9287 13.4383C62.0655 13.0951 61.3865 12.5788 60.8832 11.8905L60.4709 12.192C61.0353 12.9638 61.7946 13.537 62.74 13.9129L62.9287 13.4383ZM60.8842 11.892C60.3877 11.2029 60.1316 10.3374 60.1316 9.27928H59.6209C59.6209 10.4221 59.8987 11.3979 60.4699 12.1906L60.8842 11.892ZM60.1316 9.27928V7.35078H59.6209V9.27928H60.1316ZM60.1316 7.35078C60.1316 6.29254 60.3877 5.43333 60.8832 4.75586L60.4709 4.45437C59.8986 5.2369 59.6209 6.20813 59.6209 7.35078H60.1316ZM60.8842 4.75441C61.3873 4.05625 62.0652 3.54103 62.9262 3.20906L62.7425 2.73253C61.7949 3.09787 61.0345 3.67219 60.4699 4.45583L60.8842 4.75441ZM62.9277 3.20847C63.8082 2.86256 64.8162 2.68683 65.9559 2.68683V2.1761C64.7639 2.1761 63.6909 2.35993 62.741 2.73311L62.9277 3.20847ZM65.9559 2.68683C67.2369 2.68683 68.3034 2.89514 69.165 3.29997L69.3822 2.83773C68.4351 2.39271 67.2898 2.1761 65.9559 2.1761V2.68683ZM69.1683 3.30152C70.0532 3.70182 70.6929 4.20423 71.1068 4.79987L71.5262 4.50842C71.0467 3.8184 70.3244 3.26394 69.3788 2.83619L69.1683 3.30152ZM71.108 4.80155C71.5294 5.39768 71.7312 5.99545 71.7312 6.59899H72.2419C72.2419 5.87328 71.997 5.17448 71.525 4.50674L71.108 4.80155ZM71.7312 6.59899C71.7312 6.62223 71.7252 6.64628 71.6916 6.67991L72.0527 7.04105C72.1716 6.92215 72.2419 6.77187 72.2419 6.59899H71.7312ZM71.6916 6.67991C71.6772 6.69426 71.6619 6.70318 71.627 6.70318V7.2139C71.7882 7.2139 71.9363 7.15744 72.0527 7.04105L71.6916 6.67991ZM71.627 6.70318H68.0969V7.2139H71.627V6.70318ZM68.0969 6.70318C67.9857 6.70318 67.868 6.64881 67.7533 6.41941L67.2965 6.64782C67.465 6.98499 67.7287 7.2139 68.0969 7.2139V6.70318ZM67.7533 6.41941C67.587 6.0868 67.3768 5.82081 67.1156 5.638L66.8228 6.0564C66.9974 6.17866 67.1577 6.37028 67.2965 6.64782L67.7533 6.41941ZM67.1156 5.638C66.8337 5.44064 66.4323 5.36303 65.9559 5.36303V5.87376C66.3948 5.87376 66.6689 5.94869 66.8228 6.0564L67.1156 5.638ZM65.9559 5.36303C65.405 5.36303 64.935 5.49223 64.5724 5.77715L64.8879 6.17874C65.1355 5.98427 65.4827 5.87376 65.9559 5.87376V5.36303ZM64.5689 5.77998C64.2043 6.077 64.0335 6.49924 64.0335 7.00757H64.5443C64.5443 6.62247 64.6676 6.35829 64.8915 6.17591L64.5689 5.77998ZM64.0335 7.00757V9.62249H64.5443V7.00757H64.0335ZM86.2642 10.979L86.0836 11.1595L86.0836 11.1595L86.2642 10.979ZM86.2642 13.9044L86.0836 13.7238L86.0836 13.7238L86.2642 13.9044ZM86.1007 2.72565L85.9202 2.90621L85.9202 2.90621L86.1007 2.72565ZM86.1007 5.65108L85.9202 5.47051L85.9202 5.47051L86.1007 5.65108ZM79.4327 5.78183V5.52647H79.1773V5.78183H79.4327ZM79.4327 6.81145H79.1773V7.06681H79.4327V6.81145ZM85.2018 6.9422L85.0213 7.12277L85.0213 7.12277L85.2018 6.9422ZM85.2018 9.68786L85.0213 9.50729L85.0213 9.50729L85.2018 9.68786ZM79.4327 9.8186V9.56324H79.1773V9.8186H79.4327ZM79.4327 10.8482H79.1773V11.1036H79.4327V10.8482ZM85.9536 11.1036C86.0036 11.1036 86.0428 11.1187 86.0836 11.1595L86.4447 10.7984C86.3112 10.6649 86.1433 10.5929 85.9536 10.5929V11.1036ZM86.0836 11.1595C86.1244 11.2003 86.1395 11.2395 86.1395 11.2895H86.6503C86.6503 11.0998 86.5783 10.9319 86.4447 10.7984L86.0836 11.1595ZM86.1395 11.2895V13.5939H86.6503V11.2895H86.1395ZM86.1395 13.5939C86.1395 13.6439 86.1244 13.683 86.0836 13.7238L86.4447 14.085C86.5783 13.9515 86.6503 13.7836 86.6503 13.5939H86.1395ZM86.0836 13.7238C86.0428 13.7646 86.0036 13.7798 85.9536 13.7798V14.2905C86.1433 14.2905 86.3112 14.2185 86.4447 14.085L86.0836 13.7238ZM85.9536 13.7798H75.6247V14.2905H85.9536V13.7798ZM75.6247 13.7798C75.5747 13.7798 75.5356 13.7646 75.4948 13.7238L75.1336 14.085C75.2672 14.2185 75.435 14.2905 75.6247 14.2905V13.7798ZM75.4948 13.7238C75.454 13.683 75.4388 13.6439 75.4388 13.5939H74.9281C74.9281 13.7836 75.0001 13.9515 75.1336 14.085L75.4948 13.7238ZM75.4388 13.5939V3.03617H74.9281V13.5939H75.4388ZM75.4388 3.03617C75.4388 2.98617 75.454 2.94702 75.4948 2.90621L75.1336 2.54508C75.0001 2.6786 74.9281 2.84646 74.9281 3.03617H75.4388ZM75.4948 2.90621C75.5356 2.86541 75.5747 2.85026 75.6247 2.85026V2.33954C75.435 2.33954 75.2672 2.41155 75.1336 2.54508L75.4948 2.90621ZM75.6247 2.85026H85.7902V2.33954H75.6247V2.85026ZM85.7902 2.85026C85.8402 2.85026 85.8794 2.86541 85.9202 2.90621L86.2813 2.54508C86.1478 2.41155 85.9799 2.33954 85.7902 2.33954V2.85026ZM85.9202 2.90621C85.961 2.94702 85.9761 2.98617 85.9761 3.03617H86.4868C86.4868 2.84646 86.4148 2.6786 86.2813 2.54508L85.9202 2.90621ZM85.9761 3.03617V5.34056H86.4868V3.03617H85.9761ZM85.9761 5.34056C85.9761 5.39055 85.961 5.42971 85.9202 5.47051L86.2813 5.83165C86.4148 5.69813 86.4868 5.53027 86.4868 5.34056H85.9761ZM85.9202 5.47051C85.8794 5.51132 85.8402 5.52647 85.7902 5.52647V6.03719C85.9799 6.03719 86.1478 5.96518 86.2813 5.83165L85.9202 5.47051ZM85.7902 5.52647H79.4327V6.03719H85.7902V5.52647ZM79.1773 5.78183V6.81145H79.6881V5.78183H79.1773ZM79.4327 7.06681H84.8913V6.55609H79.4327V7.06681ZM84.8913 7.06681C84.9413 7.06681 84.9805 7.08196 85.0213 7.12277L85.3824 6.76163C85.2489 6.6281 85.081 6.55609 84.8913 6.55609V7.06681ZM85.0213 7.12277C85.0621 7.16357 85.0772 7.20273 85.0772 7.25272H85.588C85.588 7.06301 85.5159 6.89515 85.3824 6.76163L85.0213 7.12277ZM85.0772 7.25272V9.37734H85.588V7.25272H85.0772ZM85.0772 9.37734C85.0772 9.42733 85.0621 9.46649 85.0213 9.50729L85.3824 9.86843C85.5159 9.7349 85.588 9.56705 85.588 9.37734H85.0772ZM85.0213 9.50729C84.9805 9.54809 84.9413 9.56324 84.8913 9.56324V10.074C85.081 10.074 85.2489 10.002 85.3824 9.86843L85.0213 9.50729ZM84.8913 9.56324H79.4327V10.074H84.8913V9.56324ZM79.1773 9.8186V10.8482H79.6881V9.8186H79.1773ZM79.4327 11.1036H85.9536V10.5929H79.4327V11.1036Z" fill="white" mask="url(#path-1-outside-1_376_201)"/>
</g>
<defs>
<filter id="filter0_d_376_201" x="0.445312" y="0.960938" width="85.9492" height="16.1591" filterUnits="userSpaceOnUse" color-interpolation-filters="sRGB">
<feFlood flood-opacity="0" result="BackgroundImageFix"/>
<feColorMatrix in="SourceAlpha" type="matrix" values="0 0 0 0 0 0 0 0 0 0 0 0 0 0 0 0 0 0 127 0" result="hardAlpha"/>
<feOffset dy="1.53218"/>
<feComposite in2="hardAlpha" operator="out"/>
<feColorMatrix type="matrix" values="0 0 0 0 0.375 0 0 0 0 0.140152 0 0 0 0 0 0 0 0 1 0"/>
<feBlend mode="normal" in2="BackgroundImageFix" result="effect1_dropShadow_376_201"/>
<feBlend mode="normal" in="SourceGraphic" in2="effect1_dropShadow_376_201" result="shape"/>
</filter>
</defs>
</svg>
